<?xml version="1.0" encoding="UTF-8"?>
<svg version="1.1" xmlns="http://www.w3.org/2000/svg" width="1024" height="1024">
<path d="M0 0 C337.92 0 675.84 0 1024 0 C1024 337.92 1024 675.84 1024 1024 C686.08 1024 348.16 1024 0 1024 C0 686.08 0 348.16 0 0 Z " fill="#E7E5E3" transform="translate(0,0)"/>
<path d="M0 0 C7.1832311 3.20923823 13.39864624 8.45926965 19.62695312 13.19458008 C24.47458727 16.87812937 29.38873917 20.44416971 34.375 23.9375 C47.44141265 33.10239647 60.33684471 42.49383071 73.1730957 51.9777832 C78.88491391 56.1926543 84.64000299 60.34068457 90.42578125 64.453125 C96.87525511 69.03990213 103.27707393 73.69333353 109.68994141 78.33105469 C111.95180829 79.96518299 114.21576308 81.5963713 116.48046875 83.2265625 C124.98992059 89.35497197 133.45739685 95.53619498 141.89208984 101.76708984 C149.4766884 107.36432174 157.1158833 112.88408627 164.76611328 118.39111328 C168.51359775 121.09012122 172.25659079 123.79534422 176 126.5 C180.533816 129.77529972 185.06827545 133.04969232 189.60546875 136.3203125 C193.35073841 139.02015028 197.0911243 141.72666964 200.83056641 144.43457031 C202.98977623 145.99262268 205.15636611 147.53994097 207.32421875 149.0859375 C208.67462728 150.05708574 210.0248946 151.02843038 211.375 152 C211.98754639 152.4326416 212.60009277 152.8652832 213.23120117 153.31103516 C217.36417629 156.30124411 220.69942801 159.39885602 223 164 C223.12976063 168.63430819 222.66582449 172.72394994 219.75 176.4375 C214.31429662 181.50258724 209.26188201 181.26216177 202.1875 181.125 C201.30384766 181.11597656 200.42019531 181.10695313 199.50976562 181.09765625 C197.33972641 181.07419637 195.16982753 181.03832865 193 181 C193.00368717 182.09791272 193.00737434 183.19582544 193.01117325 184.32700825 C193.10003185 211.0605141 193.1657317 237.79400076 193.20724869 264.52762318 C193.22786042 277.45588751 193.25595465 290.3840542 193.30175781 303.31225586 C193.34166788 314.58248498 193.3674429 325.85264337 193.37635398 337.1229412 C193.38156161 343.08866521 193.39377286 349.05418689 193.42292023 355.01984596 C193.450155 360.63980741 193.45842862 366.25948398 193.45243073 371.87950516 C193.45352735 373.93736127 193.46143288 375.99522733 193.4768219 378.0530262 C193.64641679 401.90968952 193.64641679 401.90968952 186.95685196 409.23833942 C182.10491204 413.77145893 178.43039503 415.06437887 171.8125 415.5625 C170.18248047 415.68818359 170.18248047 415.68818359 168.51953125 415.81640625 C167.68808594 415.87699219 166.85664062 415.93757813 166 416 C166.00320011 415.44729718 166.00640023 414.89459437 166.00969732 414.32514298 C166.19768815 381.5489563 166.31253521 348.77342219 166.33273234 315.99671621 C166.33522188 312.05900824 166.33832096 308.12130097 166.34179688 304.18359375 C166.34247861 303.39968517 166.34316034 302.61577659 166.34386273 301.8081132 C166.35634633 289.12398873 166.4181796 276.44056239 166.49833374 263.75670566 C166.5795117 250.73651258 166.60746453 237.71698492 166.58627188 224.69655216 C166.57486935 216.66513645 166.6047066 208.63606745 166.6877351 200.60506372 C166.74700966 194.44089908 166.73213342 188.27891427 166.68990898 182.11465645 C166.68414775 179.59030371 166.70227235 177.06576428 166.74625206 174.5417881 C167.48321728 162.26437873 167.48321728 162.26437873 163.620646 151.02097082 C159.91408999 147.3309047 155.6931278 145.20498751 151 143 C149.42783563 141.92864212 147.87372866 140.8286192 146.36328125 139.671875 C145.69425781 139.18976563 145.02523438 138.70765625 144.3359375 138.2109375 C143.66820312 137.72882813 143.00046875 137.24671875 142.3125 136.75 C141.56613281 136.21117187 140.81976562 135.67234375 140.05078125 135.1171875 C133.70747714 130.52886419 127.40581736 125.88529595 121.10888672 121.23364258 C113.52397852 115.63614485 105.88444692 110.11615144 98.23388672 104.60888672 C94.48640216 101.90987872 90.74344155 99.20461116 87 96.5 C85.50002146 95.41663696 84.00002146 94.33330362 82.5 93.25 C79.5 91.08333333 76.5 88.91666667 73.5 86.75 C72.75758057 86.21383057 72.01516113 85.67766113 71.25024414 85.12524414 C69.7493445 84.04121584 68.24853078 82.95706858 66.74780273 81.87280273 C63.01226033 79.17412345 59.27527746 76.47748688 55.53515625 73.78515625 C47.02888127 67.65825888 38.56352339 61.47996789 30.13208008 55.25048828 C22.44614125 49.57781662 14.73497955 43.93509039 6.93945312 38.41357422 C5.63446593 37.46243174 4.35663943 36.4729954 3.10742188 35.44970703 C1.12439425 33.80323605 1.12439425 33.80323605 -2 32 C-6.85031854 32.63332185 -10.98589044 36.89441514 -14.75 39.875 C-20.55284096 44.39229429 -26.40983711 48.78698089 -32.4375 53 C-45.39549998 62.06671766 -58.1750639 71.37053977 -70.89404297 80.76904297 C-76.97521898 85.25809272 -83.09586288 89.68984176 -89.23046875 94.10546875 C-94.68083984 98.03392121 -100.096659 102.00716085 -105.5 106 C-117.46862354 114.84131035 -129.53901779 123.53890371 -141.65332031 132.17919922 C-146.63187123 135.73221833 -151.59977196 139.2999163 -156.5625 142.875 C-157.32498047 143.42285156 -158.08746094 143.97070312 -158.87304688 144.53515625 C-159.59685547 145.05722656 -160.32066406 145.57929688 -161.06640625 146.1171875 C-161.70521729 146.57722168 -162.34402832 147.03725586 -163.00219727 147.51123047 C-163.66147217 148.00252441 -164.32074707 148.49381836 -165 149 C-166.27973883 149.85578329 -166.27973883 149.85578329 -167.58533096 150.72885513 C-170.20964862 152.77735043 -170.20964862 152.77735043 -170.6280632 155.68941879 C-170.62952976 156.72484943 -170.63099632 157.76028008 -170.63250732 158.8270874 C-170.64634744 160.02101451 -170.66018755 161.21494162 -170.67444706 162.44504833 C-170.66425258 163.75450074 -170.65405809 165.06395315 -170.64355469 166.41308594 C-170.65039505 167.81234843 -170.65944047 169.21160161 -170.67051601 170.61083698 C-170.69455748 174.43280361 -170.68782786 178.2541872 -170.67605567 182.07618833 C-170.66901025 186.13455523 -170.69079498 190.19276834 -170.70954895 194.25108337 C-170.73778729 201.16647684 -170.7487928 208.08171312 -170.74758911 214.99716187 C-170.74596338 225.70891077 -170.77787812 236.42040921 -170.81616211 247.13208008 C-170.82847467 250.67604004 -170.84056435 254.22000072 -170.85255432 257.76396179 C-170.85552975 258.6365609 -170.85850518 259.50916001 -170.86157078 260.40820152 C-170.88206247 266.54884583 -170.89775989 272.68949104 -170.91123962 278.83015442 C-170.96846923 304.29194677 -171.15866579 329.74902282 -171.52687073 355.20845032 C-171.56254207 357.69042738 -171.59697892 360.1724185 -171.63098145 362.65441895 C-171.74687031 371.10307344 -171.87128724 379.55151384 -172 388 C-146.755 387.505 -146.755 387.505 -121 387 C-125.29 380.73 -129.58 374.46 -134 368 C-142.21512533 355.95700986 -150.29130076 343.96032226 -157 331 C-157.47308594 330.10410156 -157.94617188 329.20820313 -158.43359375 328.28515625 C-161.64929421 321.41980267 -162.30232476 314.4526099 -161 307 C-159.55578805 303.16426951 -157.75395186 299.52646516 -155.75878906 295.94897461 C-153.32595104 291.59322377 -153.32595104 291.59322377 -153.62890625 286.68359375 C-154.59446746 277.09912827 -144.35666327 266.31718136 -139.06958008 258.5847168 C-137.69461042 256.57290375 -136.3281894 254.55549447 -134.96289062 252.53710938 C-126.40907093 239.93473231 -117.49678204 228.06112516 -107 217 C-106.41863281 216.34257812 -105.83726562 215.68515625 -105.23828125 215.0078125 C-93.12338567 201.76382085 -77.28007493 196.77231538 -60 195 C-59.34 191.37 -58.68 187.74 -58 184 C-56.02 183.67 -54.04 183.34 -52 183 C-49.88698863 176.66096588 -48.58053577 171.29230957 -51.30859375 164.96484375 C-52.36948547 162.87104547 -53.46194712 160.792853 -54.58984375 158.734375 C-57.19201949 153.68860487 -57.09307282 149.58436897 -57 144 C-57.99 143.67 -58.98 143.34 -60 143 C-63.73789281 133.54161582 -63.5992397 121.000297 -61.0078125 111.27734375 C-55.31718602 98.81905131 -44.2249219 92.01535258 -32 87 C-22.4148095 84.30859183 -9.53139341 84.63938971 -0.44921875 88.6171875 C7.96882881 93.36996076 14.6497736 99.95971563 20 108 C20 108.66 20 109.32 20 110 C21.04341553 110.07516846 21.04341553 110.07516846 22.10791016 110.15185547 C25.28091502 110.38495478 28.45290307 110.62986679 31.625 110.875 C32.71941406 110.95363281 33.81382812 111.03226562 34.94140625 111.11328125 C40.23311491 111.53020375 45.04508778 111.93110683 50 114 C49.8125 115.83984375 49.8125 115.83984375 49 118 C41.44811179 122.90039805 32.21774525 124.09717304 23.4921875 125.421875 C20.15999619 125.79703271 20.15999619 125.79703271 18 127 C21.45538729 133.65763266 25.13246327 139.83421041 29.6796875 145.80859375 C31 148 31 148 31 152 C28.35261084 153.4606285 27.10551666 154 24 154 C24.3403125 155.670625 24.3403125 155.670625 24.6875 157.375 C25.25732303 161.86235633 24.26784084 165.23586712 22.82421875 169.46875 C21.79390578 172.63293392 21.19544727 175.81571413 20.625 179.08984375 C19.8383346 181.49408988 19.02604268 182.4849904 17 184 C13.08585073 185.18303303 9.25316888 185.10356736 5.1875 185.0625 C4.02605469 185.05347656 2.86460937 185.04445313 1.66796875 185.03515625 C0.34732422 185.01775391 0.34732422 185.01775391 -1 185 C-1.185625 186.5778125 -1.185625 186.5778125 -1.375 188.1875 C-2 192 -2 192 -3.125 194.625 C-4.25139494 197.68235771 -4.09691284 198.92864406 -3 202 C-2.18406947 203.07592196 -1.3486248 204.13717308 -0.5 205.1875 C1.81389148 208.19425164 2.27081521 210.16369538 2.375 213.9375 C2.75838431 220.17450823 5.75173374 222.70823614 10 227 C12.01490727 229.21940105 13.98063223 231.47937284 15.9375 233.75 C16.4627124 234.3591626 16.9879248 234.9683252 17.52905273 235.59594727 C21.31289906 240.0476351 24.58623626 244.67465098 27.73828125 249.59765625 C30.65385397 254.07734798 33.87827937 258.33463356 37.0625 262.625 C37.9740686 263.86020386 37.9740686 263.86020386 38.90405273 265.12036133 C41.41259532 268.51853561 43.92554548 271.91107353 46.4921875 275.265625 C47.45511719 276.55726563 47.45511719 276.55726563 48.4375 277.875 C49.23994141 278.92300781 49.23994141 278.92300781 50.05859375 279.9921875 C51.35876085 282.76515799 50.95557474 284.12006508 50 287 C48.4375 289.8125 48.4375 289.8125 47 292 C67.70199132 282.12189247 84.79587001 269.20412999 101 253 C101.027193 251.41676312 101.04648306 249.83338938 101.0625 248.25 C101.65626051 240.54117704 105.7657581 235.21131983 110 229 C110.49757813 228.11054688 110.99515625 227.22109375 111.5078125 226.3046875 C113.13764849 223.78740155 114.3860326 222.46439415 117 221 C119.578125 220.70703125 119.578125 220.70703125 122.25 220.8125 C123.58804688 220.85310547 123.58804688 220.85310547 124.953125 220.89453125 C125.62859375 220.92933594 126.3040625 220.96414063 127 221 C127.23074219 219.87207031 127.46148438 218.74414062 127.69921875 217.58203125 C128.77162434 212.38198123 129.8808664 207.19017184 131 202 C131.20318848 201.04947754 131.40637695 200.09895508 131.61572266 199.11962891 C132.22831658 196.28440008 132.86134679 193.45446049 133.5 190.625 C133.68908936 189.74046143 133.87817871 188.85592285 134.07299805 187.94458008 C135.18686223 183.11192951 136.2437666 179.49400579 140 176 C143.625 175.5625 143.625 175.5625 147 176 C149 178 149 178 149.24804688 181.55664062 C149.12549536 186.22990351 148.15800556 190.57266349 147.03125 195.09375 C146.8314856 195.92588013 146.63172119 196.75801025 146.42590332 197.61535645 C145.7924073 200.24570714 145.14643514 202.87280275 144.5 205.5 C144.06557468 207.29406968 143.63197276 209.08833895 143.19921875 210.8828125 C142.14231685 215.25757321 141.07422295 219.6294617 140 224 C140.78375 224.28875 141.5675 224.5775 142.375 224.875 C145 226 145 226 147 228 C147.25791648 231.86874724 146.75466295 235.22668527 146 239 C146 240.0725 146 241.145 146 242.25 C146 243.1575 146 244.065 146 245 C145.67 245.33 145.34 245.66 145 246 C144.83240016 248.1249266 144.66594799 250.24994376 144.5 252.375 C143.41808156 260.33076116 140.24197237 265.90065797 134 271 C131.68154585 271.71670024 129.34859715 272.38927887 127 273 C126.79567352 273.87035133 126.79567352 273.87035133 126.58721924 274.75828552 C120.23678139 301.79953224 113.84492867 328.8297025 107.25 355.8125 C106.99029419 356.87846405 106.73058838 357.9444281 106.4630127 359.04269409 C105.73325595 362.03564365 105.00010282 365.02773723 104.265625 368.01953125 C103.94150635 369.35000992 103.94150635 369.35000992 103.61083984 370.70736694 C102.11527668 376.76944663 102.11527668 376.76944663 101 379 C101.804375 379.28875 102.60875 379.5775 103.4375 379.875 C106 381 106 381 107 383 C106.99107058 386.77268101 106.86775563 390.53004429 106.7421875 394.30078125 C107.01876841 398.26929819 107.94801286 399.71047422 110 403 C111.84351637 417.47702565 107.39598957 433.91096219 98.99609375 445.84765625 C97 448 97 448 94 449 C91.26134713 449.07051114 88.54972412 449.09357765 85.8125 449.0625 C85.06291016 449.05798828 84.31332031 449.05347656 83.54101562 449.04882812 C81.69397617 449.03706354 79.84697787 449.01912865 78 449 C78 448.34 78 447.68 78 447 C78.66 447 79.32 447 80 447 C80.23460937 446.47921875 80.46921875 445.9584375 80.7109375 445.421875 C82.43168531 442.18895487 84.52183094 439.24044351 86.625 436.25 C87.25535156 435.34701172 87.25535156 435.34701172 87.8984375 434.42578125 C88.92993137 432.94886957 89.96464579 431.47420806 91 430 C88.51506509 431.97735495 86.04286989 433.9641935 83.60546875 436 C72.33837429 445.3194707 72.33837429 445.3194707 64.8125 446.5 C58.99176117 445.73662442 53.55072474 443.86971781 48 442 C48 441.34 48 440.68 48 440 C49.90625 438.73828125 49.90625 438.73828125 52.5 437.3125 C60.72765499 432.51303459 66.62315686 426.84122957 72 419 C71.175 419.804375 70.35 420.60875 69.5 421.4375 C65.64260441 424.75738965 61.42042447 427.20786107 57 429.6875 C56.32388672 430.06769287 55.64777344 430.44788574 54.95117188 430.83959961 C42.27393794 437.82529653 42.27393794 437.82529653 36 437 C33.18359375 435.6796875 33.18359375 435.6796875 30.4375 433.875 C29.52871094 433.29492188 28.61992188 432.71484375 27.68359375 432.1171875 C24.58179057 429.67005894 22.43170113 427.10448643 20 424 C20.94359375 423.72027344 21.8871875 423.44054687 22.859375 423.15234375 C40.23507863 417.81017377 53.08321119 408.78539603 64.07055664 394.25341797 C66.38054731 391.33475197 67.67559248 390.08529024 71.328125 389.125 C72.65070313 389.063125 72.65070313 389.063125 74 389 C74.07476563 388.40832031 74.14953125 387.81664062 74.2265625 387.20703125 C74.91391192 383.076196 75.52935064 379.85141915 78.6875 376.9375 C82.51537989 374.69855139 84.65256404 374.84012988 89 375 C89.20101318 374.00476318 89.40202637 373.00952637 89.60913086 371.98413086 C92.78356043 356.49484813 96.42910463 341.11542368 100.05322266 325.72686768 C100.73488482 322.82988519 101.41426204 319.93236897 102.09358311 317.03483677 C102.75777033 314.20249618 103.42291967 311.37038226 104.08839226 308.53834343 C104.55111906 306.56896884 105.0134283 304.59949615 105.47572327 302.63002014 C107.25637709 295.07088223 109.09380652 287.52847848 111 280 C110.20078125 280.93199219 109.4015625 281.86398437 108.578125 282.82421875 C102.58641577 289.78696005 96.52254841 296.65060716 90.24560547 303.35742188 C87.14327202 306.69538861 84.22241545 310.12573296 81.375 313.6875 C72.76353579 324.29449068 61.3774498 337.22868104 47.62109375 340.90234375 C40.23427502 341.28913758 35.50420746 338.6627369 30 334 C29.18015625 333.36191406 28.3603125 332.72382813 27.515625 332.06640625 C22.51941284 327.98510555 20.31396828 325.49757312 19 319 C18.67935599 315.71037887 18.54102965 312.42784843 18.4375 309.125 C18.377845 307.41912076 18.31426269 305.71337273 18.24609375 304.0078125 C18.22216553 303.26160645 18.1982373 302.51540039 18.17358398 301.74658203 C18.18354031 299.97230398 18.18354031 299.97230398 17 299 C15.30937177 311.99696541 13.64181662 324.99677512 12 338 C11.90378357 338.76121155 11.80756714 339.5224231 11.70843506 340.30670166 C11.61822083 341.02227234 11.52800659 341.73784302 11.43505859 342.47509766 C11.35830902 343.08366608 11.28155945 343.6922345 11.20248413 344.31924438 C9.10696281 361.21535431 7.39365094 378.12504278 5.87890625 395.08203125 C5.69519858 397.1229402 5.51132098 399.16383385 5.32727051 401.20471191 C4.88289463 406.13630117 4.44079504 411.06808945 4 416 C-19.94823578 416.11689678 -43.89642869 416.20501938 -67.8448925 416.25906086 C-78.9650515 416.28482228 -90.08503304 416.31993351 -101.20507812 416.37719727 C-110.89939276 416.42709521 -120.59357885 416.459306 -130.28801835 416.47044247 C-135.41932539 416.47695037 -140.55026472 416.49220297 -145.6814537 416.52865028 C-150.51599082 416.56271065 -155.35001044 416.57303269 -160.18465614 416.56553841 C-161.95429743 416.56690847 -163.72395688 416.57678098 -165.49349403 416.59602737 C-174.8123155 416.69237053 -183.14403517 416.76779812 -191 411 C-193.25390625 408.68359375 -193.25390625 408.68359375 -194.5625 406.4375 C-195.24505859 405.32181641 -195.24505859 405.32181641 -195.94140625 404.18359375 C-198.29060649 399.33782647 -198.13877955 394.57651422 -198.12025452 389.28082275 C-198.12110894 388.39127419 -198.12196337 387.50172563 -198.12284368 386.58522105 C-198.12449332 383.59878586 -198.11898552 380.6124066 -198.11352539 377.62597656 C-198.11324338 375.48748272 -198.11340152 373.34898878 -198.1139679 371.210495 C-198.11425533 365.39892528 -198.1083672 359.58737612 -198.10139394 353.7758112 C-198.09515154 347.70460679 -198.0945559 341.63340194 -198.09336853 335.56219482 C-198.09025784 324.0627589 -198.08204796 312.56333246 -198.07201904 301.06390071 C-198.0608498 287.97336903 -198.0553454 274.88283691 -198.05032361 261.79230165 C-198.03986514 234.86152917 -198.02227074 207.93076512 -198 181 C-198.60473145 181.02094727 -199.20946289 181.04189453 -199.83251953 181.06347656 C-202.59650771 181.14708945 -205.36022913 181.19880054 -208.125 181.25 C-209.07632812 181.28351563 -210.02765625 181.31703125 -211.0078125 181.3515625 C-216.88660789 181.43321244 -220.38400826 181.03168899 -225 177 C-228.39231269 173.07205899 -229.44733239 170.16005672 -229.53125 165.125 C-227.91184087 158.6473635 -222.94511406 155.05227324 -217.8125 151.375 C-217.1097998 150.85993896 -216.40709961 150.34487793 -215.68310547 149.81420898 C-209.29404807 145.15236407 -202.8232891 140.60294543 -196.34765625 136.0625 C-191.89206095 132.93322611 -187.47348959 129.75424217 -183.0625 126.5625 C-182.31701904 126.02318848 -181.57153809 125.48387695 -180.8034668 124.92822266 C-178.53511805 123.28620719 -176.26743316 121.64327952 -174 120 C-164.50530813 113.11890073 -154.99235011 106.26939301 -145.40087891 99.52368164 C-139.40593639 95.30139238 -133.45878773 91.01498685 -127.51953125 86.71484375 C-123.02431073 83.4604914 -118.51968702 80.220277 -114 77 C-102.41260281 68.73625009 -90.87828966 60.40321786 -79.4375 51.9375 C-72.79774555 47.02694682 -66.10081221 42.2104 -59.34130859 37.46630859 C-54.22025618 33.87001708 -49.13262279 30.23022507 -44.0625 26.5625 C-43.32257813 26.02737793 -42.58265625 25.49225586 -41.8203125 24.94091797 C-37.93754452 22.13079835 -34.05810677 19.31611726 -30.1796875 16.5 C-29.38554443 15.92435303 -28.59140137 15.34870605 -27.77319336 14.75561523 C-26.27291898 13.66808489 -24.77364537 12.57917185 -23.27563477 11.48852539 C-6.32863339 -0.79107917 -6.32863339 -0.79107917 0 0 Z " fill="#01487E" transform="translate(515,148)"/>
<path d="M0 0 C10.06612469 7.48588387 16.961571 17.15213814 19.5625 29.5390625 C21.67083914 46.21753103 19.8676797 60.95657675 10 75 C9.56042969 75.63550781 9.12085938 76.27101563 8.66796875 76.92578125 C1.69927607 85.98307347 -9.03815597 90.77604845 -20 93 C-33.00372751 94.62337396 -42.6796516 90.7402613 -53 83 C-53.33 95.54 -53.66 108.08 -54 121 C-62.58 121 -71.16 121 -80 121 C-80 79.75 -80 38.5 -80 -4 C-71.75 -4 -63.5 -4 -55 -4 C-54.67 -1.03 -54.34 1.94 -54 5 C-53.53851563 4.54109375 -53.07703125 4.0821875 -52.6015625 3.609375 C-38.3788063 -9.77013479 -16.28475128 -10.71035565 0 0 Z " fill="#011D37" transform="translate(564,652)"/>
<path d="M0 0 C9.24 0 18.48 0 28 0 C33.28806002 16.15796118 38.18427976 32.3616999 42.76123047 48.73168945 C42.96961044 49.47280472 43.17799042 50.21391998 43.39268494 50.97749329 C43.78691404 52.38053818 44.17828572 53.78438995 44.56642151 55.18913269 C45.28104009 58.35726484 45.28104009 58.35726484 47 61 C47.22106415 60.30953079 47.4421283 59.61906158 47.66989136 58.90766907 C49.75716686 52.38939706 51.84617121 45.8716814 53.93710136 39.35458088 C55.01191424 36.00435008 56.08606595 32.65391035 57.15869141 29.30297852 C58.39287221 25.44744119 59.62995566 21.5928406 60.8671875 17.73828125 C61.25059296 16.53915604 61.63399841 15.34003082 62.02902222 14.10456848 C62.56935593 12.4233918 62.56935593 12.4233918 63.12060547 10.70825195 C63.43593231 9.72452103 63.75125916 8.7407901 64.07614136 7.72724915 C64.95973234 5.11887094 65.97719993 2.55700017 67 0 C74.59 0 82.18 0 90 0 C96.45658255 19.96238084 102.77111288 39.9655448 109 60 C111.30327747 53.19262341 113.45086632 46.34876805 115.5390625 39.47265625 C116.20830373 37.27798576 116.87757544 35.08332457 117.546875 32.88867188 C118.59206728 29.45647976 119.63667567 26.02411124 120.68066406 22.59155273 C121.69446149 19.25979412 122.71039535 15.92869274 123.7265625 12.59765625 C124.04009674 11.56439713 124.35363098 10.531138 124.67666626 9.46656799 C125.11249527 8.03884315 125.11249527 8.03884315 125.55712891 6.58227539 C125.81233307 5.74338272 126.06753723 4.90449005 126.33047485 4.04017639 C127 2 127 2 128 0 C136.91 0 145.82 0 155 0 C148.05884995 20.9438169 141.03469809 41.85851852 133.9375 62.75 C133.56497101 63.84793884 133.19244202 64.94587769 132.80862427 66.0770874 C131.73711655 69.23416773 130.66378829 72.39062288 129.58984375 75.546875 C129.27151581 76.4851413 128.95318787 77.42340759 128.62521362 78.3901062 C128.32342194 79.27554108 128.02163025 80.16097595 127.71069336 81.07324219 C127.45154648 81.83513855 127.1923996 82.59703491 126.92539978 83.38201904 C125.6678204 86.93974506 124.32494654 90.46680923 123 94 C114.09 94 105.18 94 96 94 C89.66666667 75 83.33333333 56 77 37 C76.67314209 37.98057373 76.34628418 38.96114746 76.00952148 39.97143555 C70.00634766 57.98095703 64.00317383 75.99047852 58 94 C49.42 94 40.84 94 32 94 C27.50008694 82.75021734 27.50008694 82.75021734 26.05224609 78.38378906 C25.7241394 77.39931793 25.39603271 76.4148468 25.0579834 75.40054321 C24.71658325 74.3660202 24.37518311 73.33149719 24.0234375 72.265625 C23.65609497 71.16076752 23.28875244 70.05591003 22.91027832 68.91757202 C21.72903125 65.36264404 20.55198073 61.80634251 19.375 58.25 C18.56556454 55.81158739 17.75583057 53.37327384 16.94580078 50.93505859 C15.35437183 46.14369969 13.76440057 41.35186149 12.17578125 36.55957031 C9.41886167 28.24470325 6.64778673 19.93458555 3.875 11.625 C2.59625 7.78875 1.3175 3.9525 0 0 Z " fill="#011C36" transform="translate(317,648)"/>
<path d="M0 0 C1.91014893 0.00990967 1.91014893 0.00990967 3.85888672 0.02001953 C14.5747969 0.23709556 24.69945169 1.48713446 33.8125 7.5625 C34.15307617 10.08447266 34.15307617 10.08447266 34.10546875 13.2265625 C34.09580078 14.34804688 34.08613281 15.46953125 34.07617188 16.625 C34.05103516 17.800625 34.02589844 18.97625 34 20.1875 C33.97969727 21.96253906 33.97969727 21.96253906 33.95898438 23.7734375 C33.92353916 26.70357539 33.87412769 29.63281459 33.8125 32.5625 C29.76245244 31.26648478 25.89216008 29.77150737 22 28.0625 C11.69657069 23.78203121 -0.0639073 21.04100699 -11.08203125 24.4609375 C-13.46650531 25.51113319 -13.46650531 25.51113319 -15.55078125 26.6875 C-17.1875 27.5625 -17.1875 27.5625 -19.1875 27.5625 C-21.70993258 32.7650172 -21.99156945 37.19758985 -20.125 42.6875 C-15.85324694 49.02623035 -9.65469955 51.4399823 -2.625 53.5625 C-1.03097698 54.07206339 0.56277022 54.58249037 2.15625 55.09375 C2.94128906 55.34125 3.72632813 55.58875 4.53515625 55.84375 C17.91612569 60.06690331 30.65304422 64.55655829 37.88452148 77.47802734 C40.75201196 83.26902142 41.40280058 88.15473374 41.25 94.5625 C41.25708984 95.40039062 41.26417969 96.23828125 41.27148438 97.1015625 C41.16744051 107.44192243 37.8929121 115.05726318 30.8125 122.5625 C19.5281872 132.71838152 6.18492312 136.13744823 -8.75 136 C-9.88026611 135.99460205 -11.01053223 135.9892041 -12.17504883 135.98364258 C-24.74012811 135.75816807 -35.62427315 133.51816865 -47.1875 128.5625 C-47.1875 119.9825 -47.1875 111.4025 -47.1875 102.5625 C-42.10915983 104.25528006 -37.36103607 106.18339092 -32.48046875 108.34375 C-25.08280328 111.08167601 -18.04283773 111.90521284 -10.1875 111.875 C-9.34960938 111.89111328 -8.51171875 111.90722656 -7.6484375 111.92382812 C-0.7623516 111.92915791 5.87483783 110.98607129 11.3125 106.5 C13.83267079 103.24477939 14.15727194 100.79184572 14.08984375 96.65625 C13.49119255 92.13685499 10.85639582 89.41659658 7.44921875 86.62890625 C2.56746142 83.47405942 -3.2136755 82.31019058 -8.75 80.75 C-35.7116606 72.81691711 -35.7116606 72.81691711 -43.375 61.25 C-43.86355469 60.53199219 -44.35210937 59.81398438 -44.85546875 59.07421875 C-49.6298474 50.07150476 -49.54426515 38.70746062 -47.3828125 28.91796875 C-44.14479324 19.50538173 -38.45280618 11.79735849 -29.8125 6.6875 C-28.27843063 5.96285982 -26.73564144 5.25656794 -25.1875 4.5625 C-24.40898682 4.21179443 -23.63047363 3.86108887 -22.82836914 3.49975586 C-15.16617207 0.38177051 -8.21751121 -0.09604182 0 0 Z " fill="#011C36" transform="translate(269.1875,608.4375)"/>
<path d="M0 0 C0 7.26 0 14.52 0 22 C-7.25 19.5625 -7.25 19.5625 -9.51269531 18.79907227 C-15.71412141 16.72331251 -20.88919148 15.79473652 -27.4375 15.75 C-28.56381836 15.7190625 -28.56381836 15.7190625 -29.71289062 15.6875 C-34.251675 15.65556484 -37.3930294 15.92242821 -41 19 C-41.66666667 22.5 -41.66666667 22.5 -41 26 C-36.57930568 31.70367185 -27.71049113 32.88148908 -21.01586914 34.39941406 C-10.15322717 36.88507441 -2.17072337 40.04029516 3.94140625 49.75390625 C7.37145802 57.03169138 7.39450785 67.7929451 4.9375 75.375 C0.56663813 84.75831814 -6.72380389 89.08067153 -16 93 C-29.78661129 97.5955371 -49.4800864 94.85080474 -63 90 C-63.66 89.67 -64.32 89.34 -65 89 C-65 81.74 -65 74.48 -65 67 C-61.99646586 68.00117805 -58.99284655 69.00246831 -56 70.03515625 C-54.515 70.54369141 -54.515 70.54369141 -53 71.0625 C-51.515 71.57490234 -51.515 71.57490234 -50 72.09765625 C-40.3091065 75.01249531 -30.20750368 75.43324251 -21 71 C-18.65186266 69.06832602 -18.65186266 69.06832602 -18.625 65.625 C-18.71877744 62.06920793 -18.71877744 62.06920793 -20.4375 59.75 C-25.05447372 56.59694478 -30.18984524 55.4555094 -35.5703125 54.1015625 C-46.9256972 51.23404111 -57.3590245 48.43312344 -64 38 C-66.95631744 30.78340018 -67.31659121 22.66559021 -65.1953125 15.1484375 C-61.47644131 6.86433132 -55.0904871 1.03045216 -46.75 -2.4375 C-32.99794626 -7.44846076 -13.21808043 -6.60904021 0 0 Z " fill="#021B35" transform="translate(788,650)"/>
<path d="M0 0 C0.92103516 0.00161133 1.84207031 0.00322266 2.79101562 0.00488281 C11.07619489 0.1541917 17.40916228 1.80883791 24.5 6.125 C30.79303124 12.78820955 32.75597725 18.92986847 32.94140625 27.98046875 C32.96218735 28.81967361 32.98296844 29.65887848 33.00437927 30.52351379 C33.06974018 33.20309294 33.12869714 35.88276969 33.1875 38.5625 C33.23069802 40.37956737 33.27431273 42.19662488 33.31835938 44.01367188 C33.4254078 48.46734799 33.52671319 52.92112226 33.625 57.375 C36.57229537 58.53311388 36.57229537 58.53311388 39.625 58.375 C39.625 63.325 39.625 68.275 39.625 73.375 C36.18867253 74.52044249 33.37068045 74.6147802 29.75 74.6875 C28.53570312 74.72488281 27.32140625 74.76226563 26.0703125 74.80078125 C22.01296336 74.29936282 20.49103992 73.22563111 17.625 70.375 C16.965 69.385 16.305 68.395 15.625 67.375 C14.965 67.973125 14.305 68.57125 13.625 69.1875 C6.56483673 74.33553571 -1.75708552 76.0897879 -10.375 75.375 C-17.86356572 74.11340238 -23.46417129 71.23973069 -28.375 65.375 C-31.74548657 59.90505211 -32.25432442 53.6501788 -31.375 47.375 C-29.21694607 40.13010465 -24.57153762 35.6575762 -18.0625 32.1171875 C-7.74351155 27.827608 3.67357062 29.01310732 14.625 29.375 C14.19905412 27.93403414 13.75873367 26.49731288 13.3125 25.0625 C13.06886719 24.26199219 12.82523437 23.46148438 12.57421875 22.63671875 C11.56144577 20.22356832 10.65464958 19.00373114 8.625 17.375 C-0.30173437 14.39942188 -12.27867846 15.32683923 -20.625 19.5 C-22.375 20.375 -22.375 20.375 -24.375 20.375 C-24.51001894 17.93565775 -24.60903897 15.50375896 -24.6875 13.0625 C-24.72939453 12.37220703 -24.77128906 11.68191406 -24.81445312 10.97070312 C-24.86328125 8.94921875 -24.86328125 8.94921875 -24.375 5.375 C-18.39551281 -0.29417448 -7.75060567 -0.01415377 0 0 Z " fill="#031C35" transform="translate(333.375,810.625)"/>
<path d="M0 0 C6.08448627 4.58294996 9.07388914 11.44790033 10.8828125 18.68359375 C10.8828125 24.29359375 10.8828125 29.90359375 10.8828125 35.68359375 C-5.2871875 36.01359375 -21.4571875 36.34359375 -38.1171875 36.68359375 C-34.06528947 45.0428886 -34.06528947 45.0428886 -27.0625 49.76171875 C-22.84490652 51.08181432 -18.82597806 51.06509353 -14.4296875 51.05859375 C-13.53717285 51.05988281 -12.6446582 51.06117188 -11.72509766 51.0625 C-5.09006222 50.95589362 -0.02120684 49.75917592 5.8828125 46.68359375 C6.5428125 46.68359375 7.2028125 46.68359375 7.8828125 46.68359375 C7.8828125 52.29359375 7.8828125 57.90359375 7.8828125 63.68359375 C-5.29679069 69.62369659 -22.88521598 70.46627568 -36.6171875 65.68359375 C-47.17277474 60.59707587 -52.8023671 53.47064475 -57.1171875 42.68359375 C-59.72280853 33.633457 -59.56300866 21.28583386 -55.37109375 12.78515625 C-54.95730469 12.09164062 -54.54351563 11.398125 -54.1171875 10.68359375 C-53.69308594 9.96945312 -53.26898437 9.2553125 -52.83203125 8.51953125 C-48.10147855 1.48299882 -40.9651185 -3.47614131 -32.8203125 -5.83984375 C-20.72494283 -7.97226441 -10.52836182 -6.54623235 0 0 Z " fill="#021B34" transform="translate(719.1171875,817.31640625)"/>
<path d="M0 0 C21.45 0 42.9 0 65 0 C65 5.94 65 11.88 65 18 C50.15 18 35.3 18 20 18 C20 26.58 20 35.16 20 44 C33.53 44 47.06 44 61 44 C61 49.61 61 55.22 61 61 C47.47 61 33.94 61 20 61 C20 73.87 20 86.74 20 100 C13.4 100 6.8 100 0 100 C0 67 0 34 0 0 Z " fill="#04213C" transform="translate(228,783)"/>
<path d="M0 0 C0 7.92 0 15.84 0 24 C-1.65 23.67 -3.3 23.34 -5 23 C-12.42415685 22.3753468 -18.90139229 22.33075348 -25 27 C-29.00044884 30.84864609 -32.67989538 34.95962004 -33.2784729 40.6449585 C-33.29179657 41.64867493 -33.30512024 42.65239136 -33.31884766 43.68652344 C-33.33871735 44.82740417 -33.35858704 45.96828491 -33.37905884 47.14373779 C-33.39061005 48.36989807 -33.40216125 49.59605835 -33.4140625 50.859375 C-33.43342865 52.11888977 -33.4527948 53.37840454 -33.4727478 54.67608643 C-33.52238414 58.0166095 -33.56366277 61.35702325 -33.60089111 64.69769287 C-33.64097339 68.10976007 -33.69194054 71.52166359 -33.7421875 74.93359375 C-33.83989276 81.62233324 -33.91946003 88.31094354 -34 95 C-42.91 95 -51.82 95 -61 95 C-61 63.98 -61 32.96 -61 1 C-52.42 1 -43.84 1 -35 1 C-34.505 7.93 -34.505 7.93 -34 15 C-33.505 14.154375 -33.01 13.30875 -32.5 12.4375 C-28.27569007 6.18255688 -22.75524678 1.50159883 -15.4453125 -0.57421875 C-10.60504195 -1.41701346 -4.50420704 -2.25210352 0 0 Z " fill="#031E37" transform="translate(661,647)"/>
<path d="M0 0 C0.82798096 0.00580078 1.65596191 0.01160156 2.5090332 0.01757812 C8.96688544 0.15386499 14.56312409 1.24478229 20.6875 3.375 C20.6875 8.655 20.6875 13.935 20.6875 19.375 C18.21354167 18.62630208 15.73958333 17.87760417 13.265625 17.12890625 C12.41484375 16.88011719 11.5640625 16.63132812 10.6875 16.375 C10.04296875 16.18035156 9.3984375 15.98570312 8.734375 15.78515625 C6.02705435 15.24265879 3.44689031 15.24310152 0.6875 15.25 C-0.34375 15.24742187 -1.375 15.24484375 -2.4375 15.2421875 C-4.90907009 15.35636329 -6.9567958 15.66149344 -9.3125 16.375 C-9.3125 18.685 -9.3125 20.995 -9.3125 23.375 C-3.66513791 26.90920314 1.34161806 28.4741386 7.81445312 29.796875 C14.77723052 31.3486179 19.54601866 34.45859808 23.6875 40.375 C27.00969167 45.85244864 26.33719659 52.56044475 25.29296875 58.69140625 C23.55998145 64.40467404 19.65470103 68.2155082 14.6875 71.375 C8.3100921 74.34558414 2.92351881 74.85182296 -4.0625 74.75 C-5.02953857 74.74347412 -5.99657715 74.73694824 -6.99291992 74.73022461 C-24.28077901 74.40672099 -24.28077901 74.40672099 -28.3125 70.375 C-28.38575168 67.51232433 -28.40488205 64.674281 -28.375 61.8125 C-28.37048828 61.00619141 -28.36597656 60.19988281 -28.36132812 59.36914062 C-28.34950518 57.37106244 -28.33156914 55.37302217 -28.3125 53.375 C-27.39210938 53.7359375 -26.47171875 54.096875 -25.5234375 54.46875 C-16.16934001 57.963154 -6.25036658 60.83410905 3.5859375 57.34765625 C4.27945313 57.02667969 4.97296875 56.70570313 5.6875 56.375 C6.0175 54.065 6.3475 51.755 6.6875 49.375 C2.88737796 45.75235619 -1.61450433 45.18139588 -6.5625 44.0625 C-15.50803077 41.88084806 -22.05266075 39.27970161 -27.3125 31.375 C-29.30453747 25.55032905 -29.27958891 18.7463087 -26.75 13.125 C-23.17203228 6.91063501 -18.20417075 3.35183431 -11.54248047 0.97485352 C-7.700488 -0.05862311 -3.95710904 -0.06736187 0 0 Z " fill="#021B34" transform="translate(770.3125,810.625)"/>
<path d="M0 0 C0.92643311 -0.00128906 1.85286621 -0.00257813 2.80737305 -0.00390625 C9.86036302 0.10501068 15.33202244 1.30969729 21.75 4.375 C21.75 10.315 21.75 16.255 21.75 22.375 C19.0275 21.1375 19.0275 21.1375 16.25 19.875 C7.81940109 16.64096698 -1.07380038 15.66494768 -9.90234375 18.109375 C-14.95432415 20.40487447 -18.02693242 23.74341777 -20.33203125 28.703125 C-22.52725928 35.09263978 -21.97242768 42.47727628 -19.30078125 48.65625 C-16.78306178 52.77445285 -12.71067188 55.64658399 -8.25 57.375 C-5.52940193 57.648789 -2.97146669 57.80288457 -0.25 57.8125 C0.87643921 57.81830078 0.87643921 57.81830078 2.02563477 57.82421875 C8.16434601 57.69860513 13.00045839 56.20558457 18.52734375 53.46875 C20.75 52.375 20.75 52.375 22.75 52.375 C22.75 57.985 22.75 63.595 22.75 69.375 C10.06501182 75.15786226 -3.2980657 76.5262262 -17.1171875 73.5390625 C-27.44455849 69.54223581 -34.75967338 62.41962621 -39.25 52.375 C-39.6109375 51.64539063 -39.971875 50.91578125 -40.34375 50.1640625 C-43.39020462 40.78833579 -42.43995089 29.51565884 -38.3125 20.6875 C-32.34413093 10.37521716 -23.73391734 3.94351692 -12.31103516 0.78955078 C-8.23741517 -0.02980562 -4.14205787 -0.0059411 0 0 Z " fill="#031C36" transform="translate(423.25,810.625)"/>
<path d="M0 0 C8.58 0 17.16 0 26 0 C26 31.02 26 62.04 26 94 C17.42 94 8.84 94 0 94 C0 62.98 0 31.96 0 0 Z " fill="#011C35" transform="translate(676,648)"/>
<path d="M0 0 C6.27 0 12.54 0 19 0 C19 6.6 19 13.2 19 20 C24.94 20 30.88 20 37 20 C37 24.95 37 29.9 37 35 C31.06 35 25.12 35 19 35 C19.05105555 40.19745481 19.11398512 45.39191546 19.20751953 50.58837891 C19.23572397 52.35553311 19.25694118 54.12281334 19.27099609 55.89013672 C19.29243358 58.43262222 19.33908503 60.97359338 19.390625 63.515625 C19.39185364 64.30430969 19.39308228 65.09299438 19.39434814 65.90557861 C19.48894265 69.45775192 19.71006808 71.60159542 21.82714844 74.51074219 C26.41862329 77.6577081 31.82275963 75.86287339 37 75 C37 79.95 37 84.9 37 90 C32.35290849 91.8588366 29.04356292 92.35222472 24.1875 92.3125 C23.47553467 92.30686035 22.76356934 92.3012207 22.0300293 92.29541016 C14.94698644 92.13153721 10.43848479 91.33010769 5.1875 86.3125 C0.62371561 79.4016265 -0.44312847 73.55344672 -0.29296875 65.46875 C-0.28872391 64.59222778 -0.28447906 63.71570557 -0.28010559 62.81262207 C-0.2634513 60.04142177 -0.22582509 57.27097664 -0.1875 54.5 C-0.17243599 52.60938558 -0.1587506 50.71875964 -0.14648438 48.828125 C-0.11359139 44.21846361 -0.06190255 39.60935938 0 35 C-3.96 35 -7.92 35 -12 35 C-12 30.05 -12 25.1 -12 20 C-8.04 20 -4.08 20 0 20 C0 13.4 0 6.8 0 0 Z " fill="#041D36" transform="translate(576,793)"/>
<path d="M0 0 C6.57873334 4.21471212 9.43068233 9.61797764 11.58203125 16.99609375 C13.50757295 26.22789648 11.25950338 35.70407711 6.97265625 43.984375 C3.58761608 48.65838064 -1.59342945 51.38967797 -7 53 C-15.41223353 53.96259389 -23.93666371 54.33454769 -31 49 C-31.8444165 48.47857422 -32.68883301 47.95714844 -33.55883789 47.41992188 C-36.33130332 44.67157931 -36.62326213 43.10185678 -36.74603271 39.26324463 C-36.74218567 38.52153015 -36.73833862 37.77981567 -36.734375 37.015625 C-36.74390198 36.24120056 -36.75342896 35.46677612 -36.76324463 34.66888428 C-36.77539294 33.03157982 -36.77458554 31.39413491 -36.76171875 29.75683594 C-36.75009462 27.27024099 -36.80213839 24.79053275 -36.859375 22.3046875 C-36.97143591 9.03747927 -36.97143591 9.03747927 -32.71484375 4.015625 C-23.8552375 -4.16542933 -10.63048714 -6.06144407 0 0 Z " fill="#E7E6E3" transform="translate(546,670)"/>
<path d="M0 0 C5.94 0 11.88 0 18 0 C18 33 18 66 18 100 C12.06 100 6.12 100 0 100 C0 67 0 34 0 0 Z " fill="#001A32" transform="translate(498,783)"/>
<path d="M0 0 C6.27 0 12.54 0 19 0 C19 23.1 19 46.2 19 70 C12.73 70 6.46 70 0 70 C0 46.9 0 23.8 0 0 Z " fill="#021B34" transform="translate(460,813)"/>
<path d="M0 0 C6.27 0 12.54 0 19 0 C19 23.1 19 46.2 19 70 C12.73 70 6.46 70 0 70 C0 46.9 0 23.8 0 0 Z " fill="#021B34" transform="translate(627,813)"/>
<path d="M0 0 C6.27 0 12.54 0 19 0 C19 23.1 19 46.2 19 70 C12.73 70 6.46 70 0 70 C0 46.9 0 23.8 0 0 Z " fill="#001E39" transform="translate(534,813)"/>
<path d="M0 0 C0 4.25210362 -2.20791455 7.04929552 -4.375 10.5625 C-4.99375 11.59020508 -4.99375 11.59020508 -5.625 12.63867188 C-7.2851706 15.36724258 -8.73138153 17.73138153 -11 20 C-11.44147692 22.58738387 -11.44147692 22.58738387 -11.57836914 25.65209961 C-11.65507339 26.83770981 -11.73177765 28.02332001 -11.81080627 29.24485779 C-11.88484177 30.53432816 -11.95887726 31.82379852 -12.03515625 33.15234375 C-12.11872777 34.49082211 -12.20316782 35.82924651 -12.28843689 37.1676178 C-12.51149921 40.70242793 -12.72365096 44.23780897 -12.93328857 47.7734375 C-13.18742124 52.02970951 -13.45318234 56.28526672 -13.71833706 60.54086399 C-13.92519048 63.86192465 -14.12940935 67.183061 -14.32814026 70.50462341 C-14.76311117 77.68383219 -15.29607879 84.84196492 -16 92 C-19.1814198 89.05813662 -20.53634967 85.8000451 -22.109375 81.83203125 C-22.39927307 81.11955734 -22.68917114 80.40708344 -22.987854 79.67301941 C-23.91575562 77.38901249 -24.83333027 75.10103504 -25.75 72.8125 C-26.94982421 69.83850208 -28.15427187 66.86639321 -29.359375 63.89453125 C-29.80343689 62.79384811 -29.80343689 62.79384811 -30.25646973 61.67092896 C-32.66376063 55.7358831 -35.21753374 49.87173197 -37.87982178 44.04658508 C-39.16932282 41.17384259 -40 39.18891759 -40 36 C-38.18822266 36.42539062 -38.18822266 36.42539062 -36.33984375 36.859375 C-34.14104212 37.19680828 -34.14104212 37.19680828 -32 37 C-29.64249349 35.06267492 -28.29700504 33.65299497 -26.5625 31.25 C-25.86338501 30.35571289 -25.86338501 30.35571289 -25.15014648 29.44335938 C-24.19733904 28.22256976 -23.25525683 26.99333156 -22.32421875 25.75585938 C-20.46309307 23.28808358 -18.51731629 20.89394169 -16.5625 18.5 C-15.49902344 17.19095703 -15.49902344 17.19095703 -14.4140625 15.85546875 C-9.8004696 10.39829009 -4.89224514 5.20680574 0 0 Z " fill="#E8E8E5" transform="translate(433,424)"/>
<path d="M0 0 C0.33 0 0.66 0 1 0 C1.15855469 0.845625 1.31710937 1.69125 1.48046875 2.5625 C3.25777261 11.20353534 5.04951348 18.49520541 12.5 23.8125 C17.88181476 26.87599455 23.97397742 27.87012077 30 29 C29.67 29.66 29.34 30.32 29 31 C26.77734375 31.67578125 26.77734375 31.67578125 23.9375 32.3125 C15.80387696 34.42238925 9.763879 37.89314779 5 45 C3.82445406 47.56323292 2.98589482 50.17354605 2.1875 52.875 C1.97158203 53.56335938 1.75566406 54.25171875 1.53320312 54.9609375 C1.00951681 56.63673371 0.50293046 58.31785813 0 60 C-1.88019728 57.17970408 -2.53708592 55.39621804 -3.375 52.1875 C-5.52132747 44.86661075 -9.35735346 38.9347457 -16 35 C-20.60903301 33.36437383 -25.23759865 32.1228963 -30 31 C-30 30.34 -30 29.68 -30 29 C-29.154375 28.84144531 -28.30875 28.68289062 -27.4375 28.51953125 C-18.76696773 26.73616041 -11.47349541 24.95328109 -6.1875 17.4375 C-3.68642169 13.0416654 -2.63574628 8.35442603 -1.578125 3.44140625 C-1 1 -1 1 0 0 Z " fill="#02467C" transform="translate(642,162)"/>
<path d="M0 0 C0.33 0 0.66 0 1 0 C1.17015625 0.86882812 1.3403125 1.73765625 1.515625 2.6328125 C3.52357426 12.18125206 5.81542015 18.17635665 14 24 C18.51548594 26.17646422 23.0198824 27.3774853 28 28 C25.1513372 29.89910854 23.03910343 30.68174632 19.8125 31.6875 C13.10946556 34.11690666 7.83581439 37.13108968 4.69140625 43.7578125 C4.0072119 45.63746731 3.36856474 47.53469499 2.7890625 49.44921875 C2.06132789 51.80174697 1.16499193 53.83716716 0 56 C-0.226875 55.05125 -0.45375 54.1025 -0.6875 53.125 C-2.92747551 45.50908328 -5.8811488 38.74617754 -12.6015625 34.17578125 C-16.42442636 32.30170629 -20.39668328 31.45321328 -24.55859375 30.640625 C-25.36425781 30.42921875 -26.16992188 30.2178125 -27 30 C-27.33 29.34 -27.66 28.68 -28 28 C-27.3709375 27.90203125 -26.741875 27.8040625 -26.09375 27.703125 C-17.90177043 26.27199604 -10.70922823 24.09867382 -5.3203125 17.4140625 C-2.40396631 12.08180823 -1.29077734 5.89961174 0 0 Z " fill="#04457C" transform="translate(607,262)"/>
<path d="M0 0 C3.87987121 2.16971439 5.96960968 4.22849679 7.8125 8.375 C8.58612782 13.3229946 8.3539163 17.15681333 6.3125 21.75 C2.22827404 26.03843725 -1.83355645 28.03872235 -7.6875 28.875 C-13.00702545 28.11506779 -17.41312178 26.26385423 -21.125 22.3125 C-23.41826097 18.13067118 -23.77946886 14.04211682 -23.1875 9.375 C-21.76330275 4.87562526 -19.49295394 2.21636771 -15.375 -0.0625 C-9.90199579 -2.39940198 -5.44813521 -2.39677667 0 0 Z " fill="#021D37" transform="translate(697.1875,609.625)"/>
<path d="M0 0 C0.33 0 0.66 0 1 0 C1.18175781 0.81984375 1.36351562 1.6396875 1.55078125 2.484375 C1.80214844 3.56203125 2.05351563 4.6396875 2.3125 5.75 C2.67794922 7.35101563 2.67794922 7.35101563 3.05078125 8.984375 C3.98159307 11.94152203 5.0840935 13.61719192 7 16 C7 16.66 7 17.32 7 18 C12.92020141 21.07850473 18.30713414 23.3170545 25 24 C25 24.66 25 25.32 25 26 C24.35933594 26.17015625 23.71867188 26.3403125 23.05859375 26.515625 C16.30702237 28.40727242 10.51068738 30.14060605 5.75 35.5625 C3.73034524 39.529679 2.70320906 43.38189464 1.7109375 47.70703125 C1.47632813 48.46371094 1.24171875 49.22039062 1 50 C0.01 50.495 0.01 50.495 -1 51 C-1.14695312 50.21496094 -1.29390625 49.42992187 -1.4453125 48.62109375 C-2.91450358 41.73953785 -4.39341075 36.50800082 -10 32 C-14.67775257 28.98608218 -19.63319782 27.34170054 -25 26 C-22.15800222 24.10533481 -20.42382905 23.49782509 -17.1875 22.6875 C-12.43014688 21.27483619 -9.37992566 19.78229776 -6 16 C-4.36226196 12.75706175 -3.14270574 9.44459855 -2 6 C-1.5875 4.80375 -1.175 3.6075 -0.75 2.375 C-0.5025 1.59125 -0.255 0.8075 0 0 Z " fill="#04447B" transform="translate(690,215)"/>
<path d="M0 0 C21.45 0 42.9 0 65 0 C65 5.61 65 11.22 65 17 C50.48 17 35.96 17 21 17 C21 16.67 21 16.34 21 16 C34.86 16 48.72 16 63 16 C63 11.38 63 6.76 63 2 C42.87 2 22.74 2 2 2 C2 34.01 2 66.02 2 99 C7.28 99 12.56 99 18 99 C18 86.46 18 73.92 18 61 C18.33 61 18.66 61 19 61 C19 73.87 19 86.74 19 100 C12.73 100 6.46 100 0 100 C0 67 0 34 0 0 Z " fill="#222A33" transform="translate(228,783)"/>
<path d="M0 0 C0.89589844 0.00322266 1.79179687 0.00644531 2.71484375 0.00976562 C4.12056641 0.02233398 4.12056641 0.02233398 5.5546875 0.03515625 C6.49957031 0.03966797 7.44445312 0.04417969 8.41796875 0.04882812 C10.75527137 0.06063268 13.09244811 0.07709866 15.4296875 0.09765625 C16.34328267 10.70551123 16.34328267 10.70551123 14.19921875 13.97265625 C9.74520446 17.66783848 5.6542372 18.28842691 0.0546875 18.41015625 C-1.06679688 18.44753906 -2.18828125 18.48492188 -3.34375 18.5234375 C-7.27421248 18.00476872 -8.87166108 16.96993414 -11.5703125 14.09765625 C-12.4929148 11.01507914 -12.3050237 8.22017886 -11.5703125 5.09765625 C-7.95620566 1.29333326 -5.13111824 -0.03247543 0 0 Z " fill="#E8E7E5" transform="translate(332.5703125,852.90234375)"/>
<path d="M0 0 C1.0209375 0.8353125 1.0209375 0.8353125 2.0625 1.6875 C2.619375 2.120625 3.17625 2.55375 3.75 3 C6.54362504 6.59180363 7.0625 10.23424798 7.0625 14.6875 C-3.4975 14.6875 -14.0575 14.6875 -24.9375 14.6875 C-23.77777451 7.72914708 -22.41416424 4.56976482 -16.8125 0.3125 C-11.47211984 -2.43825616 -5.42953194 -2.42596108 0 0 Z " fill="#D9DBDA" transform="translate(704.9375,826.3125)"/>
<path d="M0 0 C3.80122964 3.18242481 4.49204864 4.74223238 5.125 9.625 C4.54444294 14.4353299 3.07357407 15.86392593 -0.3125 19.25 C-3.81490448 21.00120224 -7.49081855 20.79503846 -11.3125 20.25 C-14.32363945 18.97462069 -15.12212762 17.93320616 -17.3125 15.25 C-18.36565925 12.16979229 -18.66006073 9.48630321 -18.3125 6.25 C-16.72054049 3.00711951 -15.36645191 1.04954972 -12.5 -1.125 C-7.73869727 -2.48537221 -4.38912283 -2.31878187 0 0 Z " fill="#031C36" transform="translate(550.3125,783.75)"/>
<path d="M0 0 C3.11141288 1.6437653 5.28893717 3.03036886 7.375 5.875 C8.69601084 10.36643685 8.48383625 13.10144696 6.25 17.25 C2.89889879 21.34579037 1.38667774 21.84343961 -3.875 22.4375 C-8.66712268 22.33897037 -10.72173592 20.35822174 -14 17 C-15.60306924 13.79386153 -15.48740461 10.47860003 -15 7 C-11.19643215 0.7512814 -7.18876326 -0.74366517 0 0 Z " fill="#051E36" transform="translate(640,782)"/>
<path d="M0 0 C3.88934708 3.1600945 5.80027754 5.26907204 6.375 10.25 C5.87855761 15.21442386 4.52492587 16.55704915 1 20 C-2.74640187 21.24880062 -6.11593861 21.62291551 -10 21 C-13.41184222 19.07696166 -15.42958014 17.65940323 -16.73046875 13.875 C-17.45195203 9.64610792 -17.2344143 7.47751062 -15.3125 3.5625 C-10.75130845 -1.49179334 -6.38315626 -1.79775167 0 0 Z " fill="#031C35" transform="translate(475,783)"/>
<path d="M0 0 C6.27 0 12.54 0 19 0 C19 23.1 19 46.2 19 70 C12.73 70 6.46 70 0 70 C0 46.9 0 23.8 0 0 Z M2 2 C2 24.11 2 46.22 2 69 C6.95 69 11.9 69 17 69 C17 46.89 17 24.78 17 2 C12.05 2 7.1 2 2 2 Z " fill="#000618" transform="translate(534,813)"/>
<path d="M0 0 C8.25 0 16.5 0 25 0 C25 2.97 25 5.94 25 9 C24.67 9 24.34 9 24 9 C24 6.36 24 3.72 24 1 C16.41 1 8.82 1 1 1 C1 41.26 1 81.52 1 123 C8.59 123 16.18 123 24 123 C24 110.79 24 98.58 24 86 C26.16154208 90.32308416 26.26009056 93.37211133 26.1953125 98.046875 C26.1924826 98.81807678 26.18965271 99.58927856 26.18673706 100.3838501 C26.17557013 102.83939332 26.15047229 105.2945676 26.125 107.75 C26.11496568 109.41796347 26.10584061 111.08593268 26.09765625 112.75390625 C26.07734637 116.83619291 26.03819214 120.917685 26 125 C17.42 125 8.84 125 0 125 C0 83.75 0 42.5 0 0 Z " fill="#01050E" transform="translate(484,648)"/>
<path d="M0 0 C1.19367187 -0.00515625 2.38734375 -0.0103125 3.6171875 -0.015625 C7.10730337 0.24865994 9.87153337 0.99637065 13.125 2.25 C12.98828125 4.08203125 12.98828125 4.08203125 12.125 6.25 C9.54296875 7.69921875 9.54296875 7.69921875 6.3125 8.9375 C5.25417969 9.35386719 4.19585938 9.77023437 3.10546875 10.19921875 C-1.80250211 11.92955186 -5.62942304 12.35087648 -10.875 12.25 C-10.215 11.59 -9.555 10.93 -8.875 10.25 C-9.17771961 8.90938457 -9.51337971 7.57594105 -9.875 6.25 C-9.545 5.26 -9.215 4.27 -8.875 3.25 C-9.535 2.92 -10.195 2.59 -10.875 2.25 C-7.26395067 -0.01364287 -4.20516734 -0.01808674 0 0 Z " fill="#05457B" transform="translate(551.875,259.75)"/>
<path d="M0 0 C6.22049139 0.06211618 8.88194297 1.88194297 13.25 6.25 C13.58 9.22 13.91 12.19 14.25 15.25 C5.01 15.25 -4.23 15.25 -13.75 15.25 C-13.75 14.92 -13.75 14.59 -13.75 14.25 C-5.335 13.755 -5.335 13.755 3.25 13.25 C2.755 8.3 2.755 8.3 2.25 3.25 C0.93 2.92 -0.39 2.59 -1.75 2.25 C-3.08333333 1.91666667 -4.41666667 1.58333333 -5.75 1.25 C-4.11069007 -0.38930993 -2.25256326 0.03998633 0 0 Z " fill="#EDECEA" transform="translate(696.75,824.75)"/>
<path d="M0 0 C0.33 0 0.66 0 1 0 C1 4.95 1 9.9 1 15 C-12.53 15 -26.06 15 -40 15 C-40 27.87 -40 40.74 -40 54 C-40.33 54 -40.66 54 -41 54 C-41.33 40.8 -41.66 27.6 -42 14 C-38.66844749 12.33422375 -34.93463941 12.87992144 -31.2734375 12.90234375 C-29.97921371 12.90446617 -29.97921371 12.90446617 -28.65884399 12.90663147 C-25.8975277 12.91223812 -23.13629188 12.92479173 -20.375 12.9375 C-18.5052095 12.94251414 -16.63541774 12.9470772 -14.765625 12.95117188 C-10.17705223 12.96220971 -5.58853977 12.9794788 -1 13 C-1.01160156 12.14535156 -1.02320313 11.29070313 -1.03515625 10.41015625 C-1.04417969 9.30542969 -1.05320312 8.20070313 -1.0625 7.0625 C-1.07410156 5.96035156 -1.08570313 4.85820313 -1.09765625 3.72265625 C-1 1 -1 1 0 0 Z " fill="#192336" transform="translate(288,829)"/>
<path d="M0 0 C0 4.01147876 -1.55660911 5.64918337 -3.8125 8.9375 C-4.87404297 10.49791016 -4.87404297 10.49791016 -5.95703125 12.08984375 C-6.63121094 13.05019531 -7.30539062 14.01054688 -8 15 C-8.81017578 16.17755859 -8.81017578 16.17755859 -9.63671875 17.37890625 C-10.31154297 18.18134766 -10.31154297 18.18134766 -11 19 C-11.66 19 -12.32 19 -13 19 C-13 19.66 -13 20.32 -13 21 C-8.71 21.33 -4.42 21.66 0 22 C0 22.33 0 22.66 0 23 C-1.58323688 23.027193 -3.16661062 23.04648306 -4.75 23.0625 C-6.07257812 23.07990234 -6.07257812 23.07990234 -7.421875 23.09765625 C-9.83894273 23.00610065 -11.74188893 22.85906399 -14 22 C-16.19155076 18.71267386 -16.74335078 17.81176868 -16 14 C-13.9311993 11.89283353 -12.00124722 10.1650191 -9.6875 8.375 C-8.50312787 7.42544922 -7.31951001 6.47495673 -6.13671875 5.5234375 C-5.60780029 5.11013184 -5.07888184 4.69682617 -4.53393555 4.27099609 C-2.9202541 2.93392374 -1.4595176 1.50242048 0 0 Z " fill="#EEF0EE" transform="translate(606,576)"/>
<path d="M0 0 C1.56453159 4.00159041 0.39704259 7.04369497 -0.75 11.0625 C-1.0269873 12.04972046 -1.0269873 12.04972046 -1.30957031 13.05688477 C-1.68565876 14.3960909 -2.06552719 15.73424142 -2.44921875 17.07128906 C-3.24348918 19.85264385 -3.9956856 22.6450861 -4.75 25.4375 C-5.16621529 26.95845693 -5.58268883 28.47934339 -6 30 C-7.45606519 25.47907032 -6.27032841 22.48351204 -5 18 C-5.66 18 -6.32 18 -7 18 C-7 16.68 -7 15.36 -7 14 C-9.64 15.98 -12.28 17.96 -15 20 C-13.46150285 16.92300571 -12.39317097 15.09566228 -10.21484375 12.6171875 C-9.68439453 12.00746094 -9.15394531 11.39773438 -8.60742188 10.76953125 C-8.05634766 10.14433594 -7.50527344 9.51914062 -6.9375 8.875 C-5.8406326 7.62398515 -4.74549606 6.37144995 -3.65234375 5.1171875 C-3.16757568 4.56659668 -2.68280762 4.01600586 -2.18334961 3.44873047 C-0.90366815 1.99022263 -0.90366815 1.99022263 0 0 Z " fill="#EAEDEB" transform="translate(626,426)"/>
<path d="M0 0 C1.76227952 2.64341928 3.19871008 5.23077235 4.625 8.0625 C5.07101562 8.94035156 5.51703125 9.81820313 5.9765625 10.72265625 C7 13 7 13 7 15 C7.66 15 8.32 15 9 15 C9.33 14.01 9.66 13.02 10 12 C10 12.66 10 13.32 10 14 C11.32 13.67 12.64 13.34 14 13 C14.66 14.32 15.32 15.64 16 17 C12.25 19 12.25 19 10 19 C10.99193359 20.58941406 10.99193359 20.58941406 12.00390625 22.2109375 C12.85719223 23.59869932 13.71003396 24.98673436 14.5625 26.375 C15.00013672 27.07367188 15.43777344 27.77234375 15.88867188 28.4921875 C16.98750978 30.29185903 18.00067867 32.14322343 19 34 C18.67 34.66 18.34 35.32 18 36 C13.07935943 28.71016212 8.47179299 21.35532392 4.5 13.5 C3.99339844 12.51386719 3.99339844 12.51386719 3.4765625 11.5078125 C1.58716326 7.68216942 0.47124275 4.24118478 0 0 Z " fill="#09386F" transform="translate(355,468)"/>
<path d="M0 0 C0.33 0.66 0.66 1.32 1 2 C-0.28913487 2.67154933 -1.58140204 3.33708859 -2.875 4 C-3.59429688 4.37125 -4.31359375 4.7425 -5.0546875 5.125 C-7 6 -7 6 -9 6 C-8.34 8.31 -7.68 10.62 -7 13 C-7.66 13 -8.32 13 -9 13 C-9 12.34 -9 11.68 -9 11 C-9.66 11 -10.32 11 -11 11 C-11.43386092 14.87797662 -11.43386092 14.87797662 -9.5 16.75 C-9.005 17.1625 -8.51 17.575 -8 18 C-13.40489519 16.47987323 -16.98492628 12.72614782 -21 9 C-18.0086026 7.00573507 -15.59652859 6.13023348 -12.1875 5.0625 C-7.88662451 3.6705803 -3.94705142 2.19280634 0 0 Z M-15 9 C-13.02 9 -11.04 9 -9 9 C-9.33 8.34 -9.66 7.68 -10 7 C-12.32357511 6.81509993 -12.32357511 6.81509993 -15 9 Z " fill="#063870" transform="translate(556,564)"/>
<path d="M0 0 C0 0.33 0 0.66 0 1 C-0.55872803 1.04487549 -1.11745605 1.08975098 -1.69311523 1.13598633 C-4.27567165 1.35002212 -6.85643746 1.58116977 -9.4375 1.8125 C-10.75524414 1.91788086 -10.75524414 1.91788086 -12.09960938 2.02539062 C-18.14000486 2.58262268 -23.31059999 3.88745574 -29 6 C-29 9.63 -29 13.26 -29 17 C-26.03 16.01 -23.06 15.02 -20 14 C-19.67 14.66 -19.34 15.32 -19 16 C-20.6232687 16.6708712 -22.24867578 17.33657029 -23.875 18 C-25.23238281 18.556875 -25.23238281 18.556875 -26.6171875 19.125 C-29 20 -29 20 -31 20 C-31.13501894 17.56065775 -31.23403897 15.12875896 -31.3125 12.6875 C-31.35439453 11.99720703 -31.39628906 11.30691406 -31.43945312 10.59570312 C-31.48828125 8.57421875 -31.48828125 8.57421875 -31 5 C-22.73849933 -1.891645 -10.07008562 -0.2081074 0 0 Z " fill="#060C19" transform="translate(340,811)"/>
<path d="M0 0 C3.62778714 3.2732534 6.01557824 7.03316304 8.5 11.1875 C13.57829425 19.50950624 19.13155151 27.4466131 24.83007812 35.3527832 C25.9158778 36.88155832 26.95986476 38.43979714 28 40 C27.67 40.99 27.34 41.98 27 43 C26.35933594 42.03320312 25.71867187 41.06640625 25.05859375 40.0703125 C20.62653861 33.3951579 16.16772819 26.75300866 11.5234375 20.22265625 C9.61019714 17.43128762 7.89926625 14.54124338 6.23828125 11.59375 C4.7321034 9.65519932 3.23991942 8.94312397 1 8 C1.33 7.34 1.66 6.68 2 6 C1.39421747 3.98072489 0.73080266 1.97746603 0 0 Z " fill="#E9EEEE" transform="translate(363,489)"/>
<path d="M0 0 C0.33 0.66 0.66 1.32 1 2 C0.67 2.66 0.34 3.32 0 4 C-0.07033769 5.87379605 -0.0843022 7.75001102 -0.0625 9.625 C-0.05347656 10.62789062 -0.04445313 11.63078125 -0.03515625 12.6640625 C-0.02355469 13.43492187 -0.01195312 14.20578125 0 15 C0.66 15.33 1.32 15.66 2 16 C2 16.99 2 17.98 2 19 C3.98 19.33 5.96 19.66 8 20 C8 20.66 8 21.32 8 22 C9.58367747 21.85795259 11.16693318 21.71119847 12.75 21.5625 C13.63171875 21.48128906 14.5134375 21.40007813 15.421875 21.31640625 C17.69350452 21.03761535 19.79851823 20.61209423 22 20 C19.15428122 23.11673962 17.07162831 23.8949384 12.8125 24.3125 C7.29254043 23.8600443 2.88524666 22.00687548 -0.9375 17.9375 C-3.22066869 13.77407475 -3.5431389 9.65288987 -3 5 C-1.5 2 -1.5 2 0 0 Z " fill="#101A28" transform="translate(677,614)"/>
<path d="M0 0 C0.86753906 0.15339844 1.73507812 0.30679688 2.62890625 0.46484375 C8.69080536 1.33082934 14.82553841 1.36699415 20.9375 1.5625 C22.19369141 1.60568359 23.44988281 1.64886719 24.74414062 1.69335938 C27.82932968 1.79893619 30.91459263 1.90104551 34 2 C34 2.33 34 2.66 34 3 C32.35 3 30.7 3 29 3 C29 3.66 29 4.32 29 5 C9.12393914 5.62913674 9.12393914 5.62913674 1 2 C0.67 1.34 0.34 0.68 0 0 Z " fill="#DDE0E1" transform="translate(683,883)"/>
<path d="M0 0 C5.99436194 1.81647332 10.57187425 5.85781137 14 11 C14 11.99 14 12.98 14 14 C14.66 14 15.32 14 16 14 C16.33 12.35 16.66 10.7 17 9 C18.32 8.67 19.64 8.34 21 8 C19.41078475 13.36095277 17.81027062 18.70843973 16 24 C15.67 24 15.34 24 15 24 C14.85304688 23.21496094 14.70609375 22.42992187 14.5546875 21.62109375 C12.68975948 12.8859424 10.09783625 7.60689083 2.625 2.625 C1.75875 2.08875 0.8925 1.5525 0 1 C0 0.67 0 0.34 0 0 Z " fill="#0A326C" transform="translate(674,242)"/>
<path d="M0 0 C2.59123522 2.59123522 3.07053695 4.86520118 4.1640625 8.36328125 C4.36099701 8.99227829 4.55793152 9.62127533 4.76083374 10.26933289 C5.17571174 11.60070472 5.58738644 12.93307836 5.99609375 14.26635742 C6.6203369 16.29732864 7.25863721 18.32349296 7.8984375 20.34960938 C8.30033931 21.6455669 8.70140811 22.94178311 9.1015625 24.23828125 C9.46588379 25.41430908 9.83020508 26.59033691 10.20556641 27.80200195 C10.9254642 30.69995562 11.16929479 33.03594774 11 36 C9.00224127 33.00336191 8.01002585 30.46337374 6.875 27.0625 C6.52179688 26.02222656 6.16859375 24.98195313 5.8046875 23.91015625 C5 21 5 21 5 17 C4.34 17 3.68 17 3 17 C1.65155132 11.3443706 0.63065155 5.7809725 0 0 Z " fill="#091322" transform="translate(408,655)"/>
<path d="M0 0 C3.73487777 0.4979837 5.81237635 0.87491756 9 3 C9.34057617 5.52197266 9.34057617 5.52197266 9.29296875 8.6640625 C9.28330078 9.78554688 9.27363281 10.90703125 9.26367188 12.0625 C9.23853516 13.238125 9.21339844 14.41375 9.1875 15.625 C9.17396484 16.80835938 9.16042969 17.99171875 9.14648438 19.2109375 C9.11103916 22.14107539 9.06162769 25.07031459 9 28 C6.525 27.01 6.525 27.01 4 26 C4.66 25.67 5.32 25.34 6 25 C6.33 17.74 6.66 10.48 7 3 C4.69 2.34 2.38 1.68 0 1 C0 0.67 0 0.34 0 0 Z " fill="#14222E" transform="translate(294,613)"/>
<path d="M0 0 C0.33 0 0.66 0 1 0 C1.17015625 0.86882812 1.3403125 1.73765625 1.515625 2.6328125 C3.37065424 11.45835395 3.37065424 11.45835395 8 19 C8.66 19.99 9.32 20.98 10 22 C6.78956118 20.61811547 4.95063635 19.07578097 2.75 16.375 C2.22921875 15.74335938 1.7084375 15.11171875 1.171875 14.4609375 C0.78515625 13.97882813 0.3984375 13.49671875 0 13 C-1.32 14.32 -2.64 15.64 -4 17 C-2.68 11.39 -1.36 5.78 0 0 Z " fill="#143B70" transform="translate(607,262)"/>
<path d="M0 0 C4.96657825 4.80636605 4.96657825 4.80636605 5.0546875 7.953125 C4.58666155 13.93571761 3.3067505 16.7982922 -1 21 C-3.50497004 22.25248502 -5.20853274 22.11374406 -8.0078125 22.09765625 C-8.99394531 22.09443359 -9.98007812 22.09121094 -10.99609375 22.08789062 C-12.02863281 22.07951172 -13.06117188 22.07113281 -14.125 22.0625 C-15.68541016 22.05573242 -15.68541016 22.05573242 -17.27734375 22.04882812 C-19.85161962 22.03701952 -22.42578146 22.02055075 -25 22 C-25 21.67 -25 21.34 -25 21 C-24.38479492 20.98541748 -23.76958984 20.97083496 -23.13574219 20.95581055 C-20.33987146 20.88119423 -17.54517713 20.7845802 -14.75 20.6875 C-13.78191406 20.66494141 -12.81382812 20.64238281 -11.81640625 20.61914062 C-10.41455078 20.5659668 -10.41455078 20.5659668 -8.984375 20.51171875 C-8.12553711 20.48553467 -7.26669922 20.45935059 -6.38183594 20.43237305 C-3.52729432 19.91419006 -2.11604452 18.95677556 0 17 C0.79623822 14.90584196 0.79623822 14.90584196 1 13 C1.66 13 2.32 13 3 13 C2.68991116 11.39536551 2.37683713 9.79130769 2.0625 8.1875 C1.88847656 7.29417969 1.71445312 6.40085937 1.53515625 5.48046875 C1.02258847 2.88602829 1.02258847 2.88602829 0 0 Z " fill="#0C3069" transform="translate(733,306)"/>
<path d="M0 0 C0.33 0.66 0.66 1.32 1 2 C2.64363134 2.72159424 4.31050386 3.39351421 6 4 C6 4.66 6 5.32 6 6 C6.66 6.66 7.32 7.32 8 8 C3.38 8 -1.24 8 -6 8 C-6 7.34 -6 6.68 -6 6 C-5.34 6 -4.68 6 -4 6 C-3.71125 5.38125 -3.4225 4.7625 -3.125 4.125 C-2 2 -2 2 0 0 Z " fill="#053870" transform="translate(599,589)"/>
<path d="M0 0 C2.97 0.495 2.97 0.495 6 1 C4.68 1.33 3.36 1.66 2 2 C2 5.63 2 9.26 2 13 C5.3 13 8.6 13 12 13 C12 13.66 12 14.32 12 15 C8.04 15 4.08 15 0 15 C0 10.05 0 5.1 0 0 Z " fill="#182333" transform="translate(564,813)"/>
<path d="M0 0 C4.61401953 1.22135811 6.70062586 3.65510749 9.5703125 7.24609375 C10.93195719 9.03051485 10.93195719 9.03051485 12.6171875 10.34765625 C16.05201824 14.45198789 15.12660049 20.7864075 15.0625 25.875 C15.05798828 26.56335938 15.05347656 27.25171875 15.04882812 27.9609375 C15.03716336 29.64066335 15.01923271 31.32034375 15 33 C14.67 33 14.34 33 14 33 C13.91363281 31.96101562 13.82726562 30.92203125 13.73828125 29.8515625 C12.75625084 19.56186018 11.43811469 10.53570089 3.1875 3.4375 C2.58292969 2.98246094 1.97835937 2.52742187 1.35546875 2.05859375 C0.90816406 1.70925781 0.46085938 1.35992188 0 1 C0 0.67 0 0.34 0 0 Z " fill="#060C18" transform="translate(544,668)"/>
<path d="M0 0 C0.33 0 0.66 0 1 0 C2.05728087 6.85983809 2.11639843 13.56783224 2.0625 20.5 C2.05798828 21.60859375 2.05347656 22.7171875 2.04882812 23.859375 C2.03713158 26.57297399 2.02074086 29.28645761 2 32 C1.67 32 1.34 32 1 32 C0.93941406 31.01257813 0.87882813 30.02515625 0.81640625 29.0078125 C0.73261719 27.72648437 0.64882813 26.44515625 0.5625 25.125 C0.48128906 23.84882813 0.40007813 22.57265625 0.31640625 21.2578125 C0.20793973 18.11699848 0.20793973 18.11699848 -1 16 C-1.37483219 10.58698217 -0.90773927 5.3329682 0 0 Z " fill="#F7F8F5" transform="translate(532,440)"/>
<path d="M0 0 C0.33 0 0.66 0 1 0 C1.99 4.62 2.98 9.24 4 14 C3.34 14 2.68 14 2 14 C1.34 13.01 0.68 12.02 0 11 C-0.33 11.99 -0.66 12.98 -1 14 C-2.62652316 15.70586575 -4.29006566 17.3777546 -6 19 C-5.80664062 18.45472656 -5.61328125 17.90945312 -5.4140625 17.34765625 C-3.74762638 12.52159126 -2.42112377 7.75936223 -1.4296875 2.75 C-1 1 -1 1 0 0 Z " fill="#12376C" transform="translate(642,162)"/>
<path d="M0 0 C1.65 0.33 3.3 0.66 5 1 C5 6.94 5 12.88 5 19 C2.36 17.68 -0.28 16.36 -3 15 C-2.34 14.67 -1.68 14.34 -1 14 C-0.01 14.33 0.98 14.66 2 15 C2.05386629 12.87527424 2.09273071 10.75016348 2.125 8.625 C2.14820313 7.44164062 2.17140625 6.25828125 2.1953125 5.0390625 C2.32866229 1.88846183 2.32866229 1.88846183 0 0 Z " fill="#040B18" transform="translate(440,814)"/>
<path d="M0 0 C0.825 0.66 1.65 1.32 2.5 2 C6.45881475 4.62985094 9.31446777 4.52061469 14 4 C16.36293002 2.84367254 18.14983755 1.85016245 20 0 C22.9375 -0.25 22.9375 -0.25 26 0 C26.66 0.99 27.32 1.98 28 3 C26.9790625 2.62875 26.9790625 2.62875 25.9375 2.25 C22.36223207 1.94572188 20.79333087 3.1492187 17.8203125 4.99609375 C14.85558224 6.63114885 12.3596787 6.94000574 9 7 C2.67726737 5.03062426 2.67726737 5.03062426 0.5625 1.8125 C0.376875 1.214375 0.19125 0.61625 0 0 Z " fill="#EEEFEE" transform="translate(459,799)"/>
<path d="M0 0 C0.66 0.33 1.32 0.66 2 1 C-11.92846715 15.30948905 -11.92846715 15.30948905 -20 18 C-20.66 17.67 -21.32 17.34 -22 17 C-21.0821875 16.35933594 -20.164375 15.71867187 -19.21875 15.05859375 C-12.51357231 10.34432962 -5.99201445 5.61983964 0 0 Z " fill="#082F6B" transform="translate(602,414)"/>
<path d="M0 0 C0.66 1.32 1.32 2.64 2 4 C1.44570313 4.17015625 0.89140625 4.3403125 0.3203125 4.515625 C-4.20422546 5.7725243 -4.20422546 5.7725243 -7.0625 9.125 C-7.371875 9.74375 -7.68125 10.3625 -8 11 C-11.625 11.75 -11.625 11.75 -15 12 C-10.58990583 7.14889642 -5.41995647 3.651893 0 0 Z " fill="#073A73" transform="translate(362,253)"/>
<path d="M0 0 C0 5.61 0 11.22 0 17 C-1.65 17.33 -3.3 17.66 -5 18 C-4.34 17.34 -3.68 16.68 -3 16 C-2.75639927 12.87185486 -2.75639927 12.87185486 -2.875 9.375 C-2.90207031 7.59222656 -2.90207031 7.59222656 -2.9296875 5.7734375 C-2.95289063 4.85820313 -2.97609375 3.94296875 -3 3 C-4.98 3.66 -6.96 4.32 -9 5 C-6.45523312 2.20075644 -3.92372883 0 0 0 Z " fill="#262A33" transform="translate(446,863)"/>
<path d="M0 0 C0.33 0 0.66 0 1 0 C1.22327233 3.20023666 1.10098824 5.6826084 0.125 8.75 C-2.810673 11.85835965 -5.58613786 12.03320673 -9.72265625 12.640625 C-12.02443528 12.88624772 -12.02443528 12.88624772 -14 14 C-12.63016497 10.83884224 -12.0109362 10.0072908 -9 8 C-6.66800612 7.92094936 -4.33167378 7.91201231 -2 8 C-1.34 5.36 -0.68 2.72 0 0 Z " fill="#083973" transform="translate(606,515)"/>
<path d="M0 0 C0.66 0.66 1.32 1.32 2 2 C-0.97 2 -3.94 2 -7 2 C-7.66 3.32 -8.32 4.64 -9 6 C-9.99 6.33 -10.98 6.66 -12 7 C-12 9.64 -12 12.28 -12 15 C-12.66 14.67 -13.32 14.34 -14 14 C-14.50338797 8.71442634 -13.34676996 6.09049661 -10 2 C-6.80606073 -0.34222213 -3.8884831 -0.33812896 0 0 Z " fill="#111B2B" transform="translate(472,782)"/>
<path d="M0 0 C2.60847629 1.49745861 4.87028902 2.87028902 7 5 C7.04063832 6.66617115 7.042721 8.33388095 7 10 C5.84935451 8.27403177 4.70169026 6.54605039 3.5625 4.8125 C-0.57323742 1.88722231 -5.09079874 2.69529096 -10 3 C-10.12375 3.804375 -10.2475 4.60875 -10.375 5.4375 C-10.58125 6.283125 -10.7875 7.12875 -11 8 C-11.99 8.495 -11.99 8.495 -13 9 C-13.375 6.75 -13.375 6.75 -13 4 C-8.80620939 0.21535969 -5.57603447 -0.79657635 0 0 Z " fill="#131D2B" transform="translate(547,782)"/>
<path d="M0 0 C3.05295148 1.13072277 4.60796794 2.61372244 6.5625 5.125 C7.7690625 6.548125 7.7690625 6.548125 9 8 C9.99 8 10.98 8 12 8 C12.66 8.33 13.32 8.66 14 9 C13.67 10.32 13.34 11.64 13 13 C15.475 13.99 15.475 13.99 18 15 C18 15.33 18 15.66 18 16 C15.25 16.375 15.25 16.375 12 16 C10.125 13.5625 10.125 13.5625 9.2109375 11.9296875 C7.09830937 8.56311235 4.28962875 5.77538023 1.609375 2.85546875 C0 1 0 1 0 0 Z " fill="#ECEFEE" transform="translate(523,242)"/>
<path d="M0 0 C-0.969375 0.268125 -1.93875 0.53625 -2.9375 0.8125 C-3.948125 1.204375 -4.95875 1.59625 -6 2 C-6.33 2.99 -6.66 3.98 -7 5 C-8.32 5 -9.64 5 -11 5 C-11.33 6.65 -11.66 8.3 -12 10 C-12.763125 10.12375 -13.52625 10.2475 -14.3125 10.375 C-17.20267136 10.88102792 -17.20267136 10.88102792 -20 13 C-18.47933557 9.01049214 -16.0629151 7.29905274 -12.625 4.875 C-11.66851562 4.19179687 -10.71203125 3.50859375 -9.7265625 2.8046875 C-3.65067179 -1.2168906 -3.65067179 -1.2168906 0 0 Z " fill="#08336C" transform="translate(481,238)"/>
<path d="M0 0 C2.81870482 1.46023156 5.41430006 3.16244674 8 5 C5 5 5 5 3.3125 4 C-0.10566421 2.52187493 -3.37340321 2.41416513 -7 3 C-10.14344435 4.74635797 -12.46862726 6.46862726 -15 9 C-15.99 8.67 -16.98 8.34 -18 8 C-16.75312408 7.03760548 -15.50235031 6.08025991 -14.25 5.125 C-13.55390625 4.59132812 -12.8578125 4.05765625 -12.140625 3.5078125 C-8.01458174 0.60151196 -5.11843604 -0.68902024 0 0 Z " fill="#12336D" transform="translate(515,148)"/>
<path d="M0 0 C0.33 0 0.66 0 1 0 C1 4.95 1 9.9 1 15 C-8.75 12.25 -8.75 12.25 -11 10 C-7.53058454 10.45822468 -4.32604951 10.89131683 -1 12 C-1.01160156 11.21753906 -1.02320313 10.43507813 -1.03515625 9.62890625 C-1.04417969 8.61699219 -1.05320312 7.60507812 -1.0625 6.5625 C-1.07410156 5.55316406 -1.08570313 4.54382813 -1.09765625 3.50390625 C-1 1 -1 1 0 0 Z " fill="#050D19" transform="translate(790,815)"/>
<path d="M0 0 C0.33 0 0.66 0 1 0 C1 5.28 1 10.56 1 16 C2.65 15.67 4.3 15.34 6 15 C4.1875 16.5625 4.1875 16.5625 2 18 C1.01 17.67 0.02 17.34 -1 17 C-1.02684679 14.35409986 -1.04676357 11.70846904 -1.0625 9.0625 C-1.07087891 8.30775391 -1.07925781 7.55300781 -1.08789062 6.77539062 C-1.09652441 4.85005687 -1.05224333 2.92464419 -1 1 C-0.67 0.67 -0.34 0.34 0 0 Z " fill="#F6F6F5" transform="translate(308,815)"/>
<path d="M0 0 C0.99 0.66 1.98 1.32 3 2 C2.67 2.66 2.34 3.32 2 4 C2.66 4 3.32 4 4 4 C3.67 4.99 3.34 5.98 3 7 C0.4375 8.1875 0.4375 8.1875 -2 9 C-2 8.34 -2 7.68 -2 7 C-3.32 8.32 -4.64 9.64 -6 11 C-4.54955729 6.89041233 -2.48889248 3.56741255 0 0 Z " fill="#ECECEB" transform="translate(579,718)"/>
<path d="M0 0 C5.61 0 11.22 0 17 0 C15.68 0.33 14.36 0.66 13 1 C13 1.66 13 2.32 13 3 C11.54263913 3.19491452 10.08405407 3.38069358 8.625 3.5625 C7.81289063 3.66691406 7.00078125 3.77132812 6.1640625 3.87890625 C4 4 4 4 2 3 C2 2.34 2 1.68 2 1 C1.34 0.67 0.68 0.34 0 0 Z " fill="#D5D9DA" transform="translate(355,885)"/>
<path d="M0 0 C0 0.99 0 1.98 0 3 C-4.00258373 6.33419111 -7.82791939 6.37352741 -12.8125 6.1875 C-13.85180664 6.16719727 -13.85180664 6.16719727 -14.91210938 6.14648438 C-16.60841265 6.11138845 -18.30431136 6.05758943 -20 6 C-20 5.67 -20 5.34 -20 5 C-16.37 5 -12.74 5 -9 5 C-8.67 4.01 -8.34 3.02 -8 2 C-6.8553125 1.7834375 -6.8553125 1.7834375 -5.6875 1.5625 C-2.91827092 1.0367406 -2.91827092 1.0367406 0 0 Z " fill="#EFF0EF" transform="translate(768,718)"/>
<path d="M0 0 C0.33 0.66 0.66 1.32 1 2 C-0.98 2.99 -2.96 3.98 -5 5 C-5 5.99 -5 6.98 -5 8 C-8.3 7.34 -11.6 6.68 -15 6 C-15 5.34 -15 4.68 -15 4 C-14.08476563 3.79503906 -13.16953125 3.59007812 -12.2265625 3.37890625 C-11.03804687 3.10949219 -9.84953125 2.84007812 -8.625 2.5625 C-6.84996094 2.16224609 -6.84996094 2.16224609 -5.0390625 1.75390625 C-2.10505419 1.14365305 -2.10505419 1.14365305 0 0 Z " fill="#173D72" transform="translate(627,187)"/>
<path d="M0 0 C0.33 0 0.66 0 1 0 C1.35050464 5.841744 1.16727335 9.8531808 -2 15 C-2.66 14.67 -3.32 14.34 -4 14 C-3.85892253 12.54119891 -3.71197585 11.08296449 -3.5625 9.625 C-3.48128906 8.81289063 -3.40007813 8.00078125 -3.31640625 7.1640625 C-3 5 -3 5 -2 3 C-1.34 3 -0.68 3 0 3 C0 2.01 0 1.02 0 0 Z " fill="#044178" transform="translate(613,491)"/>
<path d="M0 0 C4.6780303 2.3989899 4.6780303 2.3989899 5.9375 4.75 C6.02943362 8.05961048 5.02092017 10.87718535 4 14 C1.90284215 10.85426323 1.47995441 8.98543749 0.875 5.3125 C0.70742188 4.31863281 0.53984375 3.32476562 0.3671875 2.30078125 C0.24601563 1.54152344 0.12484375 0.78226563 0 0 Z " fill="#083167" transform="translate(638,208)"/>
<path d="M0 0 C0 3.93235469 -1.54945341 5.02964049 -4 8 C-4.33 8.99 -4.66 9.98 -5 11 C-5.66 11 -6.32 11 -7 11 C-7.66 11.66 -8.32 12.32 -9 13 C-9.66 11.68 -10.32 10.36 -11 9 C-10.37351562 8.51789062 -9.74703125 8.03578125 -9.1015625 7.5390625 C-7.87566406 6.59160156 -7.87566406 6.59160156 -6.625 5.625 C-5.81289063 4.99851562 -5.00078125 4.37203125 -4.1640625 3.7265625 C-1.95776805 2.03226506 -1.95776805 2.03226506 0 0 Z " fill="#EDEEEB" transform="translate(789,731)"/>
<path d="M0 0 C2.23610296 2.15624214 4.22182874 4.28707248 6.125 6.75 C6.74375 7.4925 7.3625 8.235 8 9 C8.66 9 9.32 9 10 9 C11.125 16.75 11.125 16.75 10 19 C9.34 18.67 8.68 18.34 8 18 C7.86722656 17.09765625 7.73445312 16.1953125 7.59765625 15.265625 C6.91880507 11.55634665 5.70007 9.73019321 3.4375 6.75 C0 2.18511066 0 2.18511066 0 0 Z " fill="#EDEFEE" transform="translate(537,282)"/>
<path d="M0 0 C0.99 0 1.98 0 3 0 C2.76953125 1.85546875 2.76953125 1.85546875 2 4 C0.07421875 5.30078125 0.07421875 5.30078125 -2.3125 6.3125 C-3.48232422 6.83263672 -3.48232422 6.83263672 -4.67578125 7.36328125 C-7.23499813 8.06437764 -8.53099982 7.87573233 -11 7 C-9.35 6.67 -7.7 6.34 -6 6 C-6.33 5.01 -6.66 4.02 -7 3 C-4.69 2.34 -2.38 1.68 0 1 C0 0.67 0 0.34 0 0 Z " fill="#073770" transform="translate(562,262)"/>
<path d="M0 0 C0.33 0.99 0.66 1.98 1 3 C1.99 3 2.98 3 4 3 C3.34 3.66 2.68 4.32 2 5 C2 5.99 2 6.98 2 8 C1.34 8.66 0.68 9.32 0 10 C-0.33 8.68 -0.66 7.36 -1 6 C-3.475 7.485 -3.475 7.485 -6 9 C-4.68775452 5.06326356 -3.08089673 2.77280706 0 0 Z " fill="#053C76" transform="translate(399,375)"/>
<path d="M0 0 C1.65 0.33 3.3 0.66 5 1 C5 1.99 5 2.98 5 4 C1.98509443 5.00496852 -0.04181692 5.10335303 -3.1875 5.0625 C-4.53908203 5.04896484 -4.53908203 5.04896484 -5.91796875 5.03515625 C-6.60503906 5.02355469 -7.29210937 5.01195312 -8 5 C-7.01 3.68 -6.02 2.36 -5 1 C-2 2 -2 2 -1 3 C-0.67 2.01 -0.34 1.02 0 0 Z " fill="#E1DFDB" transform="translate(428,863)"/>
<path d="M0 0 C2 3.75 2 3.75 2 6 C2.99 6 3.98 6 5 6 C5 6.66 5 7.32 5 8 C1.37 7.01 -2.26 6.02 -6 5 C-6 4.34 -6 3.68 -6 3 C-4.02 2.01 -2.04 1.02 0 0 Z " fill="#0C376F" transform="translate(569,585)"/>
<path d="M0 0 C1.2065625 0.0309375 1.2065625 0.0309375 2.4375 0.0625 C2.7675 1.3825 3.0975 2.7025 3.4375 4.0625 C2.798125 3.876875 2.15875 3.69125 1.5 3.5 C0.4790625 3.2834375 0.4790625 3.2834375 -0.5625 3.0625 C-1.8606424 4.2115712 -1.8606424 4.2115712 -2.5625 7.0625 C-1.9025 7.3925 -1.2425 7.7225 -0.5625 8.0625 C-1.5525 9.5475 -1.5525 9.5475 -2.5625 11.0625 C-3.2225 11.0625 -3.8825 11.0625 -4.5625 11.0625 C-4.42207123 9.41619672 -4.27500671 7.77045821 -4.125 6.125 C-4.04378906 5.20847656 -3.96257813 4.29195313 -3.87890625 3.34765625 C-3.43241544 0.12300042 -3.2948538 0.08036229 0 0 Z " fill="#EBEEEC" transform="translate(644.5625,419.9375)"/>
<path d="M0 0 C4.95 0 9.9 0 15 0 C15.33 0.99 15.66 1.98 16 3 C10.72 3 5.44 3 0 3 C0 2.01 0 1.02 0 0 Z " fill="#D4D7D8" transform="translate(261,631)"/>
<path d="M0 0 C4.455 0.99 4.455 0.99 9 2 C9 3.32 9 4.64 9 6 C8.01 5.67 7.02 5.34 6 5 C3.85744207 5.38932856 3.85744207 5.38932856 2 6 C0 3 0 3 0 0 Z " fill="#DBE2E3" transform="translate(393,460)"/>
<path d="M0 0 C-1.32 0.33 -2.64 0.66 -4 1 C-3.67 1.66 -3.34 2.32 -3 3 C-1.68 2.34 -0.36 1.68 1 1 C-0.6875 3.5 -0.6875 3.5 -3 6 C-5.75 6.3125 -5.75 6.3125 -8 6 C-7.75 3.625 -7.75 3.625 -7 1 C-4.12732844 -1.10662581 -3.46720491 -1.15573497 0 0 Z " fill="#EFF2EE" transform="translate(575,578)"/>
<path d="M0 0 C1 3 1 3 0 6 C-0.22179785 7.89212737 -0.40614015 9.78884472 -0.5625 11.6875 C-0.68818359 13.17830078 -0.68818359 13.17830078 -0.81640625 14.69921875 C-0.87699219 15.45847656 -0.93757813 16.21773438 -1 17 C-1.99 17.33 -2.98 17.66 -4 18 C-4.02696365 16.20841511 -4.04637917 14.41671527 -4.0625 12.625 C-4.07410156 11.62726563 -4.08570313 10.62953125 -4.09765625 9.6015625 C-4 7 -4 7 -3 5 C-2.34 5 -1.68 5 -1 5 C-0.67 3.35 -0.34 1.7 0 0 Z " fill="#D6DEDF" transform="translate(355,449)"/>
<path d="M0 0 C0.26404456 6.86515862 -0.74158054 13.25846717 -2 20 C-2.33 20 -2.66 20 -3 20 C-2.98839844 18.86820312 -2.97679687 17.73640625 -2.96484375 16.5703125 C-2.95546546 15.08854331 -2.9463653 13.60677235 -2.9375 12.125 C-2.92912109 11.37863281 -2.92074219 10.63226563 -2.91210938 9.86328125 C-2.79311916 5.80154422 -2.79311916 5.80154422 -4 2 C-1 0 -1 0 0 0 Z " fill="#052C65" transform="translate(532,439)"/>
<path d="M0 0 C-0.99 0 -1.98 0 -3 0 C-3.33 0.99 -3.66 1.98 -4 3 C-4.99 2.67 -5.98 2.34 -7 2 C-7.33 3.65 -7.66 5.3 -8 7 C-9.65 7.33 -11.3 7.66 -13 8 C-10.75373981 2.28224679 -6.06506476 -1.81951943 0 0 Z " fill="#EEEFEC" transform="translate(627,295)"/>
<path d="M0 0 C0.33 0 0.66 0 1 0 C1 4.95 1 9.9 1 15 C1.66 15.33 2.32 15.66 3 16 C-0.50776784 17.60355101 -3.14354879 18.22036864 -7 18 C-5 16 -5 16 -1 15 C-0.67 10.05 -0.34 5.1 0 0 Z " fill="#B0B8C0" transform="translate(613,868)"/>
<path d="M0 0 C0.66 0.99 1.32 1.98 2 3 C2 2.34 2 1.68 2 1 C2.99 1.33 3.98 1.66 5 2 C5.33 2.99 5.66 3.98 6 5 C3.69 6.98 1.38 8.96 -1 11 C-0.67 7.37 -0.34 3.74 0 0 Z " fill="#EDEFED" transform="translate(510,647)"/>
<path d="M0 0 C1.16161779 2.86578759 0.9946154 4.01630163 0.00390625 7.015625 C-0.70958984 8.61664062 -0.70958984 8.61664062 -1.4375 10.25 C-1.91058594 11.32765625 -2.38367188 12.4053125 -2.87109375 13.515625 C-3.24363281 14.33546875 -3.61617187 15.1553125 -4 16 C-4.33 16 -4.66 16 -5 16 C-5.33 13.69 -5.66 11.38 -6 9 C-4.68 8.67 -3.36 8.34 -2 8 C-1.855625 7.236875 -1.71125 6.47375 -1.5625 5.6875 C-1 3 -1 3 0 0 Z " fill="#0D3770" transform="translate(621,573)"/>
<path d="M0 0 C-0.33 0.33 -0.66 0.66 -1 1 C0.32 1.66 1.64 2.32 3 3 C2.67 3.66 2.34 4.32 2 5 C0.01853549 4.55170486 -1.96014211 4.09107502 -3.9375 3.625 C-5.03964844 3.36976563 -6.14179687 3.11453125 -7.27734375 2.8515625 C-8.17582031 2.57054687 -9.07429687 2.28953125 -10 2 C-10.33 1.34 -10.66 0.68 -11 0 C-3.57142857 -1.28571429 -3.57142857 -1.28571429 0 0 Z " fill="#13366E" transform="translate(590,290)"/>
<path d="M0 0 C0.33 0.66 0.66 1.32 1 2 C1.66 2 2.32 2 3 2 C3.1953125 3.98567708 3.390625 5.97135417 3.5859375 7.95703125 C3.92665391 10.29988142 3.92665391 10.29988142 6 13 C2.83884224 11.63016497 2.0072908 11.0109362 0 8 C-0.25760279 5.30547479 -0.08900053 2.71451625 0 0 Z " fill="#061326" transform="translate(625,789)"/>
<path d="M0 0 C0.33 0 0.66 0 1 0 C1 1.98 1 3.96 1 6 C1.99 6.33 2.98 6.66 4 7 C3.01 8.485 3.01 8.485 2 10 C1.5396236 13.19806665 1.5396236 13.19806665 1.375 16.6875 C1.30023438 17.86699219 1.22546875 19.04648437 1.1484375 20.26171875 C1.07496094 21.61716797 1.07496094 21.61716797 1 23 C0.67 23 0.34 23 0 23 C0 15.41 0 7.82 0 0 Z " fill="#015385" transform="translate(318,459)"/>
<path d="M0 0 C0.55171875 0.16371094 1.1034375 0.32742188 1.671875 0.49609375 C4.26614007 1.05760414 6.59835411 1.09739008 9.25 1.0625 C10.58804687 1.04896484 10.58804687 1.04896484 11.953125 1.03515625 C12.62859375 1.02355469 13.3040625 1.01195312 14 1 C14 1.33 14 1.66 14 2 C12.9275 2.12375 11.855 2.2475 10.75 2.375 C7.56296928 2.90617179 5.77573258 3.56073125 3 5 C2.34 4.67 1.68 4.34 1 4 C0.67 4.66 0.34 5.32 0 6 C0.185625 5.38125 0.37125 4.7625 0.5625 4.125 C1.23686176 1.95839822 1.23686176 1.95839822 0 0 Z " fill="#DFDFDE" transform="translate(321,826)"/>
<path d="M0 0 C0.66 0.33 1.32 0.66 2 1 C1.67 2.65 1.34 4.3 1 6 C2.32 5.67 3.64 5.34 5 5 C4.67 6.32 4.34 7.64 4 9 C2.35 9.33 0.7 9.66 -1 10 C-0.67 6.7 -0.34 3.4 0 0 Z " fill="#0B3F76" transform="translate(618,462)"/>
<path d="M0 0 C3.3 0.33 6.6 0.66 10 1 C9.67 1.66 9.34 2.32 9 3 C6.27734375 3.6328125 6.27734375 3.6328125 2.9375 4.125 C1.83277344 4.29257813 0.72804688 4.46015625 -0.41015625 4.6328125 C-1.69212891 4.81457031 -1.69212891 4.81457031 -3 5 C-1.68 4.34 -0.36 3.68 1 3 C0.67 2.01 0.34 1.02 0 0 Z " fill="#0F2E65" transform="translate(662,190)"/>
<path d="M0 0 C0.33 0 0.66 0 1 0 C1.06058594 0.62648438 1.12117187 1.25296875 1.18359375 1.8984375 C1.26738281 2.71570313 1.35117187 3.53296875 1.4375 4.375 C1.51871094 5.18710937 1.59992187 5.99921875 1.68359375 6.8359375 C1.89090114 9.04272805 1.89090114 9.04272805 3 11 C2.06553465 13.03144641 1.06775224 15.03533587 0 17 C-0.33 17 -0.66 17 -1 17 C-0.67 11.39 -0.34 5.78 0 0 Z " fill="#F0F3F2" transform="translate(627,647)"/>
<path d="M0 0 C0.66 0 1.32 0 2 0 C2.33 0.99 2.66 1.98 3 3 C1.5625 5.6875 1.5625 5.6875 0 8 C1.65 7.67 3.3 7.34 5 7 C2.60490662 9.89932357 0.68754757 10.50168276 -3 11 C-2.38722388 8.03824877 -1.74627478 6.61941217 0 4 C0 2.68 0 1.36 0 0 Z " fill="#F2F4F2" transform="translate(565,429)"/>
<path d="M0 0 C0.99 0 1.98 0 3 0 C2.25 2.9375 2.25 2.9375 1 6 C-1.125 6.875 -1.125 6.875 -3 7 C-3 7.66 -3 8.32 -3 9 C-3.66 8.67 -4.32 8.34 -5 8 C-4.24266726 6.6589523 -3.46867264 5.32730219 -2.6875 4 C-2.25824219 3.2575 -1.82898438 2.515 -1.38671875 1.75 C-0.70029297 0.88375 -0.70029297 0.88375 0 0 Z " fill="#083E75" transform="translate(383,396)"/>
<path d="M0 0 C2.56327512 1.02531005 5.10910287 2.04935606 7.625 3.1875 C10.1017849 4.30289415 10.1017849 4.30289415 13 3 C13.33 3.66 13.66 4.32 14 5 C13.01 5 12.02 5 11 5 C11 5.66 11 6.32 11 7 C10.01 7.33 9.02 7.66 8 8 C5.95703125 6.6015625 5.95703125 6.6015625 3.8125 4.625 C3.09707031 3.97789062 2.38164063 3.33078125 1.64453125 2.6640625 C0 1 0 1 0 0 Z " fill="#ECEFEC" transform="translate(727,300)"/>
<path d="M0 0 C4.0042343 3.49087093 5.62671065 5.64951939 6 11 C4.1875 12.0625 4.1875 12.0625 2 13 C1.01 12.67 0.02 12.34 -1 12 C0.32 11.67 1.64 11.34 3 11 C3.34681622 6.83820535 2.63162831 5.17988421 0 2 C0 1.34 0 0.68 0 0 Z " fill="#0A2F6A" transform="translate(540,289)"/>
<path d="M0 0 C0.66 0.33 1.32 0.66 2 1 C-0.33333333 3.33333333 -2.66666667 5.66666667 -5 8 C-6.32 7.67 -7.64 7.34 -9 7 C-6.03 4.69 -3.06 2.38 0 0 Z " fill="#ECEFEC" transform="translate(500,187)"/>
<path d="M0 0 C-0.33 0.99 -0.66 1.98 -1 3 C-2.32 2.67 -3.64 2.34 -5 2 C-2 0 -2 0 0 0 Z M-7 2 C-6.01 2.495 -6.01 2.495 -5 3 C-5 3.99 -5 4.98 -5 6 C-1.535 7.485 -1.535 7.485 2 9 C-0.84961767 10.16095535 -1.83945073 10.06567925 -4.75 8.875 C-7 7 -7 7 -7.3125 4.3125 C-7.209375 3.549375 -7.10625 2.78625 -7 2 Z " fill="#EFF0ED" transform="translate(768,828)"/>
<path d="M0 0 C0.66 0.33 1.32 0.66 2 1 C1.41892368 4.7602985 0.34800504 7.53035032 -1.5625 10.8125 C-2.01753906 11.60269531 -2.47257812 12.39289063 -2.94140625 13.20703125 C-3.29074219 13.79871094 -3.64007813 14.39039063 -4 15 C-4.33 14.34 -4.66 13.68 -5 13 C-4.2578125 10.9765625 -4.2578125 10.9765625 -3.125 8.625 C-1.75438442 5.75916741 -0.66759978 3.11073087 0 0 Z " fill="#EBEDEB" transform="translate(364,419)"/>
<path d="M0 0 C1.65 0 3.3 0 5 0 C5 0.66 5 1.32 5 2 C1.59347128 5.20614467 -1.51400257 6.74809374 -6 8 C-4.71937515 6.2925002 -3.38232443 4.62626404 -2 3 C-1.34 3 -0.68 3 0 3 C0 2.01 0 1.02 0 0 Z " fill="#084076" transform="translate(658,191)"/>
<path d="M0 0 C0 0.33 0 0.66 0 1 C2.97 1.495 2.97 1.495 6 2 C6 2.33 6 2.66 6 3 C0.54230189 3.11138159 -4.61509359 2.91657981 -10 2 C-6.3558226 -0.4294516 -4.28758728 -0.16179575 0 0 Z " fill="#D7DBDC" transform="translate(331,808)"/>
<path d="M0 0 C2.45823172 3.68734758 3.01242616 6.69699971 4 11 C3.01 11 2.02 11 1 11 C-1.125 3.375 -1.125 3.375 0 0 Z " fill="#D8DDDF" transform="translate(342,723)"/>
<path d="M0 0 C0.33 0 0.66 0 1 0 C1 3.96 1 7.92 1 12 C0.34 12 -0.32 12 -1 12 C-1.22162329 10.37675914 -1.42689803 8.751279 -1.625 7.125 C-1.74101563 6.22007812 -1.85703125 5.31515625 -1.9765625 4.3828125 C-1.98429688 3.59648438 -1.99203125 2.81015625 -2 2 C-1.34 1.34 -0.68 0.68 0 0 Z " fill="#DCE0DE" transform="translate(521,551)"/>
<path d="M0 0 C0.66 0 1.32 0 2 0 C2.53154742 1.60064843 3.04988353 3.20568874 3.5625 4.8125 C3.85253906 5.70582031 4.14257812 6.59914063 4.44140625 7.51953125 C5 10 5 10 4 13 C2.35 9.04 0.7 5.08 -1 1 C-0.67 0.67 -0.34 0.34 0 0 Z " fill="#EAEDEC" transform="translate(396,465)"/>
<path d="M0 0 C0.53625 0.226875 1.0725 0.45375 1.625 0.6875 C1.295 1.3475 0.965 2.0075 0.625 2.6875 C-0.035 2.6875 -0.695 2.6875 -1.375 2.6875 C-1.375 3.3475 -1.375 4.0075 -1.375 4.6875 C-2.695 5.0175 -4.015 5.3475 -5.375 5.6875 C-5.045 5.0275 -4.715 4.3675 -4.375 3.6875 C-5.695 3.3575 -7.015 3.0275 -8.375 2.6875 C-2.95961538 -0.38942308 -2.95961538 -0.38942308 0 0 Z " fill="#EEEEEB" transform="translate(562.375,267.3125)"/>
<path d="M0 0 C-0.33 0.99 -0.66 1.98 -1 3 C-2.65 3 -4.3 3 -6 3 C-6 3.66 -6 4.32 -6 5 C-8.97 4.505 -8.97 4.505 -12 4 C-10.66666667 3.33333333 -9.33333333 2.66666667 -8 2 C-7.34 1.62875 -6.68 1.2575 -6 0.875 C-4 0 -4 0 0 0 Z " fill="#DCDEDF" transform="translate(348,881)"/>
<path d="M0 0 C0.99 0.99 1.98 1.98 3 3 C2.34 4.65 1.68 6.3 1 8 C-0.32 7.67 -1.64 7.34 -3 7 C-2.1654738 4.49642139 -1.20628008 2.33214148 0 0 Z " fill="#095285" transform="translate(647,354)"/>
<path d="M0 0 C1.41687119 4.25061356 0.19320039 6.71851625 -1 11 C-1.66 11 -2.32 11 -3 11 C-3.36923077 3.49230769 -3.36923077 3.49230769 -1.5 1 C-1.005 0.67 -0.51 0.34 0 0 Z " fill="#ECEDEA" transform="translate(617,387)"/>
<path d="M0 0 C4.43458973 1.3937282 6.87378374 3.60582235 10 7 C6.6875 6.875 6.6875 6.875 3 6 C1.0625 2.9375 1.0625 2.9375 0 0 Z " fill="#07346E" transform="translate(709,289)"/>
<path d="M0 0 C0.66 0.33 1.32 0.66 2 1 C-0.31537955 4.72114571 -2.28579473 7.61229661 -6 10 C-5.58578031 5.16743695 -3.53586014 3.17320782 0 0 Z " fill="#050E1E" transform="translate(750,816)"/>
<path d="M0 0 C2.45823172 3.68734758 3.01242616 6.69699971 4 11 C2.68 10.67 1.36 10.34 0 10 C0 6.7 0 3.4 0 0 Z " fill="#DADFE0" transform="translate(338,711)"/>
<path d="M0 0 C0.66 0.33 1.32 0.66 2 1 C0.55609075 4.80666984 -1.34952803 6.26602582 -5 8 C-5.66 7.67 -6.32 7.34 -7 7 C-4.69 4.69 -2.38 2.38 0 0 Z " fill="#02306C" transform="translate(414,359)"/>
<path d="M0 0 C1.32 1.32 2.64 2.64 4 4 C3.875 7.6875 3.875 7.6875 3 11 C2.01 11.495 2.01 11.495 1 12 C0.67 8.04 0.34 4.08 0 0 Z " fill="#053F75" transform="translate(536,283)"/>
<path d="M0 0 C1.98 0.99 3.96 1.98 6 3 C5.01 3.33 4.02 3.66 3 4 C3.66 5.32 4.32 6.64 5 8 C4.01 8.495 4.01 8.495 3 9 C0 3.375 0 3.375 0 0 Z " fill="#0C3D74" transform="translate(461,306)"/>
<path d="M0 0 C4.43458973 1.3937282 6.87378374 3.60582235 10 7 C7.69 6.67 5.38 6.34 3 6 C3 5.01 3 4.02 3 3 C1.56249809 1.31201173 1.56249809 1.31201173 0 0 Z " fill="#08306A" transform="translate(611,218)"/>
<path d="M0 0 C4.29 0.33 8.58 0.66 13 1 C13 1.33 13 1.66 13 2 C6.565 2.495 6.565 2.495 0 3 C0 2.01 0 1.02 0 0 Z " fill="#DCDCDB" transform="translate(416,827)"/>
<path d="M0 0 C0.66 0.33 1.32 0.66 2 1 C-0.43161094 5.74164134 -0.43161094 5.74164134 -3.0625 6.9375 C-4.0215625 6.9684375 -4.0215625 6.9684375 -5 7 C-5.66 6.34 -6.32 5.68 -7 5 C-6.21625 4.54625 -5.4325 4.0925 -4.625 3.625 C-1.96301969 2.11571258 -1.96301969 2.11571258 0 0 Z " fill="#DDDFDD" transform="translate(420,441)"/>
<path d="M0 0 C3.96 0.33 7.92 0.66 12 1 C12 1.33 12 1.66 12 2 C10.3603125 2.2165625 10.3603125 2.2165625 8.6875 2.4375 C5.06877013 2.88288104 5.06877013 2.88288104 2 4 C1.34 3.34 0.68 2.68 0 2 C0 1.34 0 0.68 0 0 Z " fill="#0D5385" transform="translate(483,235)"/>
<path d="M0 0 C2.375 1.1875 2.375 1.1875 3.375 3.1875 C1.065 3.5175 -1.245 3.8475 -3.625 4.1875 C-4.285 2.8675 -4.945 1.5475 -5.625 0.1875 C-2.625 -0.8125 -2.625 -0.8125 0 0 Z " fill="#ECEDE9" transform="translate(543.625,201.8125)"/>
<path d="M0 0 C1.98 0 3.96 0 6 0 C5.67 2.31 5.34 4.62 5 7 C4.67 5.68 4.34 4.36 4 3 C2.68 3 1.36 3 0 3 C0 2.01 0 1.02 0 0 Z " fill="#EFEEEC" transform="translate(607,483)"/>
<path d="M0 0 C0.66 0.33 1.32 0.66 2 1 C0.79618552 3.49361571 -0.45428722 5.68143083 -2 8 C-2.99 6.68 -3.98 5.36 -5 4 C-3.35 2.68 -1.7 1.36 0 0 Z " fill="#EFF2ED" transform="translate(361,288)"/>
<path d="M0 0 C1.32 0.66 2.64 1.32 4 2 C3.01 2.33 2.02 2.66 1 3 C0.67 3.66 0.34 4.32 0 5 C-1.65 5 -3.3 5 -5 5 C-3.35 3.35 -1.7 1.7 0 0 Z " fill="#EFEEEB" transform="translate(393,265)"/>
<path d="M0 0 C4.43458973 1.3937282 6.87378374 3.60582235 10 7 C6.66666667 5.66666667 3.33333333 4.33333333 0 3 C0 2.01 0 1.02 0 0 Z " fill="#0A306B" transform="translate(549,173)"/>
<path d="M0 0 C0.268125 0.639375 0.53625 1.27875 0.8125 1.9375 C1.88667752 4.33131686 1.88667752 4.33131686 5 5 C4.67 6.65 4.34 8.3 4 10 C1.16625119 6.79663178 0.4794463 4.21912747 0 0 Z " fill="#DBDCDD" transform="translate(424,697)"/>
<path d="M0 0 C2.31 0.33 4.62 0.66 7 1 C7 1.99 7 2.98 7 4 C4.69 3.67 2.38 3.34 0 3 C0 2.01 0 1.02 0 0 Z " fill="#DBDEDE" transform="translate(757,680)"/>
<path d="M0 0 C0.804375 0.495 0.804375 0.495 1.625 1 C4.5391061 2.22699204 6.86867708 2.14233286 10 2 C10 2.33 10 2.66 10 3 C4.04296875 4.7578125 4.04296875 4.7578125 2 5 C1.01 4.34 0.02 3.68 -1 3 C-0.67 2.01 -0.34 1.02 0 0 Z " fill="#DCDFDF" transform="translate(638,644)"/>
<path d="M0 0 C0.33 0 0.66 0 1 0 C1.33 3.96 1.66 7.92 2 12 C1.01 11.67 0.02 11.34 -1 11 C-0.67 7.37 -0.34 3.74 0 0 Z " fill="#DBE7E8" transform="translate(532,440)"/>
<path d="M0 0 C0.66 0 1.32 0 2 0 C2 2.31 2 4.62 2 7 C1.01 7 0.02 7 -1 7 C-1.04254356 5.00045254 -1.04080783 2.99958364 -1 1 C-0.67 0.67 -0.34 0.34 0 0 Z " fill="#DAE1E3" transform="translate(464,317)"/>
<path d="M0 0 C-3.08559304 2.26881841 -4.42209376 3.05451946 -8.3125 2.6875 C-9.199375 2.460625 -10.08625 2.23375 -11 2 C-7.06425135 -0.62383243 -4.54354105 -1.51451368 0 0 Z " fill="#0B2A60" transform="translate(676,239)"/>
<path d="M0 0 C-0.33 2.64 -0.66 5.28 -1 8 C-1.33 8 -1.66 8 -2 8 C-2 6.35 -2 4.7 -2 3 C-2.99 2.67 -3.98 2.34 -5 2 C-2 0 -2 0 0 0 Z " fill="#0A1425" transform="translate(727,864)"/>
<path d="M0 0 C1.98 0 3.96 0 6 0 C6.33 1.65 6.66 3.3 7 5 C3.66462511 3.88820837 2.36292656 2.52588702 0 0 Z " fill="#DDDBDA" transform="translate(411,864)"/>
<path d="M0 0 C1.42944945 2.35438733 2.08661261 3.48032433 1.625 6.25 C1.41875 6.8275 1.2125 7.405 1 8 C0.01 8 -0.98 8 -2 8 C-1.34 5.36 -0.68 2.72 0 0 Z " fill="#DADEDF" transform="translate(387,703)"/>
<path d="M0 0 C-1.65 1.65 -3.3 3.3 -5 5 C-5.33 3.35 -5.66 1.7 -6 0 C-2.25 -1.125 -2.25 -1.125 0 0 Z " fill="#E4E3E0" transform="translate(598,588)"/>
<path d="M0 0 C0.33 0.66 0.66 1.32 1 2 C1.66 2 2.32 2 3 2 C2.67 3.65 2.34 5.3 2 7 C1.01 7 0.02 7 -1 7 C-0.67 4.69 -0.34 2.38 0 0 Z " fill="#D3DCDF" transform="translate(627,479)"/>
<path d="M0 0 C0 3 0 3 -2.5 5.6875 C-3.325 6.450625 -4.15 7.21375 -5 8 C-4.67 5.69 -4.34 3.38 -4 1 C-2.68 0.67 -1.36 0.34 0 0 Z " fill="#EFF4EF" transform="translate(397,375)"/>
<path d="M0 0 C3 0.25 3 0.25 5 2.25 C4.01 2.91 3.02 3.57 2 4.25 C1.67 3.26 1.34 2.27 1 1.25 C-0.98 1.58 -2.96 1.91 -5 2.25 C-3 0.25 -3 0.25 0 0 Z " fill="#013671" transform="translate(437,346.75)"/>
</svg>
